<?xml version="1.0" standalone="no"?>
<!DOCTYPE svg PUBLIC "-//W3C//DTD SVG 1.1//EN" "http://www.w3.org/Graphics/SVG/1.1/DTD/svg11.dtd" >
<!--
2013-9-30: Created.
-->
<svg>
<metadata>
Created by iconfont
</metadata>
<defs>

<font id="iconfont" horiz-adv-x="1024" >
  <font-face
    font-family="iconfont"
    font-weight="500"
    font-stretch="normal"
    units-per-em="1024"
    ascent="896"
    descent="-128"
  />
    <missing-glyph />
    
    <glyph glyph-name="x" unicode="x" horiz-adv-x="1001"
d="M281 543q-27 -1 -53 -1h-83q-18 0 -36.5 -6t-32.5 -18.5t-23 -32t-9 -45.5v-76h912v41q0 16 -0.5 30t-0.5 18q0 13 -5 29t-17 29.5t-31.5 22.5t-49.5 9h-133v-97h-438v97zM955 310v-52q0 -23 0.5 -52t0.5 -58t-10.5 -47.5t-26 -30t-33 -16t-31.5 -4.5q-14 -1 -29.5 -0.5
t-29.5 0.5h-32l-45 128h-439l-44 -128h-29h-34q-20 0 -45 1q-25 0 -41 9.5t-25.5 23t-13.5 29.5t-4 30v167h911zM163 247q-12 0 -21 -8.5t-9 -21.5t9 -21.5t21 -8.5q13 0 22 8.5t9 21.5t-9 21.5t-22 8.5zM316 123q-8 -26 -14 -48q-5 -19 -10.5 -37t-7.5 -25t-3 -15t1 -14.5
t9.5 -10.5t21.5 -4h37h67h81h80h64h36q23 0 34 12t2 38q-5 13 -9.5 30.5t-9.5 34.5q-5 19 -11 39h-368zM336 498v228q0 11 2.5 23t10 21.5t20.5 15.5t34 6h188q31 0 51.5 -14.5t20.5 -52.5v-227h-327z" />
    

    
    <glyph glyph-name="triangle-right" unicode="&#58882;" d="M243.9786-47.38340000000005V850.8066410973361l537.2558-449.6951L243.9786-47.38340000000005zM243.9786-47.38340000000005"  horiz-adv-x="1000" />

    
    <glyph glyph-name="hollow-time" unicode="&#59049;" d="M912.717498 553.292708c-21.904892 51.791573-53.260018 98.299817-93.192495 138.231271-39.932478 39.932478-86.440721 71.287603-138.232295 93.193519-53.633524 22.685675-110.591771 34.187637-169.292708 34.187637-58.700937 0-115.659183-11.501962-169.292708-34.187637-51.79055-21.905916-98.298793-53.260018-138.231271-93.193519-39.932478-39.932478-71.287603-86.440721-93.193519-138.231271-22.684652-53.633524-34.187637-110.591771-34.187637-169.292708 0-58.700937 11.501962-115.659183 34.187637-169.292708 21.905916-51.791573 53.261041-98.299817 93.193519-138.232295s86.440721-71.287603 138.231271-93.192495c53.633524-22.685675 110.591771-34.187637 169.292708-34.187637 58.699913 0 115.65816 11.501962 169.292708 34.187637 51.791573 21.904892 98.299817 53.260018 138.232295 93.192495s71.287603 86.440721 93.192495 138.232295c22.685675 53.633524 34.187637 110.591771 34.187637 169.292708C946.905134 442.700937 935.403173 499.659183 912.717498 553.292708zM783.344988 112.65501200000006c-72.478731-72.478731-168.844499-112.394836-271.344988-112.394836S313.133743 40.17628000000002 240.655012 112.65501200000006 128.260176 281.499511 128.260176 384c0 102.500489 39.916105 198.866257 112.394836 271.344988s168.844499 112.394836 271.344988 112.394836 198.866257-39.916105 271.344988-112.394836S895.739824 486.500489 895.739824 384C895.739824 281.499511 855.82372 185.13374299999998 783.344988 112.65501200000006zM537.582655 670.525736c0 14.128789-11.453866 25.582655-25.582655 25.582655s-25.582655-11.453866-25.582655-25.582655l0-274.246061c0-2.117221 0.261966-4.172019 0.747014-6.139837-0.485047-1.967818-0.747014-4.022617-0.747014-6.139837 0-14.128789 11.453866-25.582655 25.582655-25.582655l286.525736 0c14.128789 0 25.582655 11.452843 25.582655 25.582655s-11.453866 25.582655-25.582655 25.582655l-260.943081 0L537.582655 670.525736z"  horiz-adv-x="1024" />

    
    <glyph glyph-name="right" unicode="&#58883;" d="M679.374008 384.246617L280.140305 783.468041c-11.102872 11.090593-11.102872 29.109991 0 40.177048 11.090593 11.109012 29.092595 11.109012 40.188304 0l414.455383-414.450267c2.229784-1.246387 4.973268-0.947582 6.874571-2.843768 6.076392-6.076392 8.508791-14.167674 7.936763-22.103414 0.572028-7.941879-1.860371-16.034185-7.936763-22.097274-1.902326-1.908466-4.650927-1.603521-6.886851-2.856048L320.329633-55.16925100000003c-11.096732-11.084453-29.097712-11.084453-40.188304 0-11.102872 11.114129-11.102872 29.091572 0 40.200584L679.374008 384.246617z"  horiz-adv-x="1024" />

    
    <glyph glyph-name="bottom" unicode="&#58888;" d="M950.143898 614.851739c-11.067057 11.102872-29.086455 11.102872-40.177048 0l-399.221424-399.23268-399.215284 399.23268c-11.109012 11.102872-29.086455 11.102872-40.200584 0-11.084453-11.090593-11.084453-29.091572 0-40.188304L485.792105 160.21930699999996c1.252527-2.235924 0.947582-4.984524 2.856048-6.886851 6.064113-6.076392 14.155395-8.508791 22.097274-7.936763 7.936763-0.572028 16.028045 1.860371 22.103414 7.936763 1.896186 1.902326 1.598404 4.644787 2.843768 6.874571L950.143898 574.663434C961.251887 585.760167 961.251887 603.761146 950.143898 614.851739z"  horiz-adv-x="1024" />

    
    <glyph glyph-name="xiao31" unicode="&#59524;" d="M509.4656 586.7968c-84.4288 0-153.1136-68.6848-153.1136-153.1136 0-84.4544 68.6848-153.1648 153.1136-153.1648 84.4288 0 153.1136 68.7104 153.1136 153.1648C662.6048 518.112 593.92 586.7968 509.4656 586.7968zM509.4656 318.9184c-63.2576 0-114.7136 51.4816-114.7136 114.7648 0 63.2576 51.456 114.7136 114.7136 114.7136 63.2576 0 114.7136-51.456 114.7136-114.7136C624.2048 370.4 572.7488 318.9184 509.4656 318.9184zM509.4656 756.5248c-190.0544 0-344.704-144.8192-344.704-322.8416 0-32.7936 5.2224-65.1264 15.5136-96.0768 0.1024-0.384 0.256-0.7424 0.4096-1.1008 7.7056-22.9376 18.2272-45.1072 31.5392-66.3552l280.5248-422.3744C496.3328-157.5744 502.3232-160.8 508.7488-160.8c0 0 0 0 0.0256 0 6.4 0 12.416 3.2 15.9744 8.5248L806.4 269.6384c13.3376 21.0432 24.0384 43.52 31.872 66.8672 0.1536 0.3584 0.2816 0.7168 0.4096 1.1008 10.2912 30.9504 15.5136 63.2832 15.5136 96.0768C854.1952 611.7056 699.5456 756.5248 509.4656 756.5248zM802.5856 350.7392c-0.1536-0.3584-0.2816-0.7168-0.4096-1.0752-6.8864-20.736-16.384-40.7552-27.9808-59.0848L508.8-106.9632 244.5056 290.9376c-11.6224 18.5856-20.9408 38.3488-27.7248 58.8032-9.0368 26.9824-13.5936 55.2192-13.5936 83.9424 0 156.8512 137.3952 284.4416 306.304 284.4416s306.304-127.5904 306.304-284.4416C815.7952 405.3696 811.3408 377.4912 802.5856 350.7392z"  horiz-adv-x="1024" />

    
    <glyph glyph-name="edit-one1" unicode="&#58911;" d="M99.154789 824.944688c2.704598-0.073678 5.41022-0.208754 8.114818-0.208754 141.268444-0.010233 282.535865-0.00921 423.803285-0.00921 2.482541 0 4.965082 0 8.28264 0 1.297552-20.84884 2.562359-41.209564 3.885494-62.456471-2.983961 0-5.4225 0-7.861038 0-121.527844 0-243.056712 0-364.585579-0.001023-8.556886 0-8.574283-0.005117-8.574283-8.423857-0.00307-248.668523-0.00307-497.340115 0-746.008638 0-8.306176 0.01535-8.325619 8.092305-8.325619 227.76954-0.002047 455.539081-0.002047 683.310667 0 8.144494 0 8.160867 0.016373 8.160867 8.257058 0.002047 142.234445 0.002047 284.46889 0.002047 426.705382 0 2.851954 0 5.702885 0 9.31618 9.788947-0.572028 18.777669-1.154289 27.76946-1.608637 11.761881-0.596588 23.52581-1.091868 35.289738-1.63115 0-168.004365 0-336.004637 0-504.007979-275.229458 0-550.458917 0-825.688375 0C99.154789 232.67654900000002 99.154789 528.81113 99.154789 824.944688zM515.459287 296.25046999999995c-29.795607 29.843702-59.150168 59.248406-89.147366 89.295745 127.575584 148.489916 255.736499 297.6634 383.544373 446.424492 29.581736-29.68202 59.024302-59.21873 89.088014-89.381703C771.545756 594.310913 643.387911 445.145615 515.459287 296.25046999999995zM467.906248 249.51505299999997c-57.944713-28.952402-116.418476-58.168818-174.892239-87.386256-0.293689 0.287549-0.586354 0.577145-0.880043 0.865717 29.237905 58.431807 58.475809 116.861568 87.61343 175.091784C409.268756 308.42474400000003 438.409446 279.147954 467.906248 249.51505299999997z"  horiz-adv-x="1024" />

    
    <glyph glyph-name="remove" unicode="&#59076;" d="M513.554914 835.77536c-248.291946 0-449.583438-201.303772-449.583438-449.625394 0-248.299109 201.292516-449.595718 449.583438-449.595718 248.281713 0 449.63665 201.296609 449.63665 449.595718C963.192587 634.471588 761.836627 835.77536 513.554914 835.77536zM735.450676 345.02533700000004L291.70827 345.02533700000004c-22.716374 0-41.135886 18.415418-41.135886 41.139979 0 22.716374 18.419512 41.132816 41.135886 41.132816l443.742407 0c22.720468 0 41.139979-18.416442 41.139979-41.132816C776.590656 363.44075499999997 758.171144 345.02533700000004 735.450676 345.02533700000004z"  horiz-adv-x="1024" />

    
    <glyph glyph-name="upload-three" unicode="&#58896;" d="M801.508161 466.072227C774.081509 602.113623 656.710334 706.144978 511.998465 706.144978c-113.490797 0-211.273844-64.062038-258.202667-160.091138C132.510478 530.134265 42.520931 430.062082 42.520931 306.02099799999996c0-132.039245 105.661482-240.072751 234.739279-240.072751l508.578064 0c109.574604 0 195.640796 88.070848 195.640796 200.106504C981.478046 370.08508200000006 899.329071 458.111928 801.508161 466.072227M590.231247 346.076272L590.231247 185.98615700000005 433.727821 185.98615700000005 433.727821 346.076272 316.35767 346.076272l195.640796 199.977567 195.603957-199.977567L590.231247 346.076272z"  horiz-adv-x="1024" />

    
    <glyph glyph-name="add" unicode="&#59239;" d="M863.328 413.44l-317.344 1.12L545.984 733.184c0 17.664-14.336 32-32 32s-32-14.336-32-32l0-318.4L159.616 415.936c-0.032 0-0.064 0-0.096 0-17.632 0-31.936-14.24-32-31.904C127.424 366.368 141.728 352 159.392 351.936l322.592-1.152 0-319.168c0-17.696 14.336-32 32-32s32 14.304 32 32l0 318.944 317.088-1.12c0.064 0 0.096 0 0.128 0 17.632 0 31.936 14.24 32 31.904C895.264 399.008 880.96 413.376 863.328 413.44z"  horiz-adv-x="1024" />

    
    <glyph glyph-name="contact-one" unicode="&#59014;" d="M512 896C230.4 896 0 665.6 0 384s230.4-512 512-512 512 230.4 512 512S793.6 896 512 896zM512-64c-249.6 0-448 198.4-448 448 0 249.6 198.4 448 448 448s448-198.4 448-448C960 134.39999999999998 761.6-64 512-64zM691.2 345.6c-51.2 0-96-25.6-121.6-64C486.4 294.4 422.4 358.4 409.6 448c38.4 25.6 64 70.4 64 115.2C473.6 640 409.6 704 332.8 704 256 704 192 640 192 563.2 192 300.79999999999995 467.2 64 691.2 64l0 0c76.8 0 140.8 64 140.8 140.8C832 281.6 768 345.6 691.2 345.6zM691.2 115.20000000000005L691.2 115.20000000000005c-198.4 0-448 217.6-448 448 0 51.2 44.8 96 96 96s96-44.8 96-96c0-32-19.2-64-51.2-83.2L364.8 473.6l0-12.8c0-121.6 102.4-217.6 217.6-224l12.8 0 6.4 12.8c12.8 32 44.8 51.2 83.2 51.2 51.2 0 96-44.8 96-96C787.2 153.60000000000002 742.4 115.20000000000005 691.2 115.20000000000005z"  horiz-adv-x="1024" />

    
    <glyph glyph-name="edit" unicode="&#58895;" d="M960.341161-65.53439300000002c0-17.874947-12.503355-32.453666-28.013328-32.453666l-840.466346 0c-15.37796 0-27.883361 14.578719-27.883361 32.453666l0 0c0 18.00389 12.505402 32.45469 27.883361 32.45469l840.466346 0C947.837806-33.07970399999999 960.341161-47.53050399999995 960.341161-65.53439300000002L960.341161-65.53439300000002zM855.486132 623.261489c-12.381576-12.615924-32.763743-12.615924-45.265051 0l-135.681561 137.620819c-12.44093 12.609784-12.44093 33.277467 0 45.890321l45.265051 45.959909c12.383622 12.615924 32.764766 12.615924 45.270168 0l135.807433-137.683244c12.378506-12.679372 12.378506-33.340915 0-45.894415L855.486132 623.261489zM357.659602 118.42395299999998c-12.381576-12.551453-32.76579-12.551453-45.267098 0l-135.868835 137.618772c-12.441954 12.614901-12.441954 33.281561-0.062425 45.892368l407.477561 413.114202c12.439907 12.550429 32.826168 12.550429 45.266074 0l135.743985-137.68222c12.507448-12.680395 12.507448-33.345009 0-45.896461L357.659602 118.42395299999998zM131.189031 210.15035699999999c-12.43786 12.610807-25.444706 8.616652-28.882156-8.876584l-32.763743-165.892032c-3.44052-17.494259 7.878812-28.90467 25.135653-25.420145l163.564922 33.09224c17.25684 3.487595 21.129217 16.669434 8.753781 29.34983L131.189031 210.15035699999999z"  horiz-adv-x="1025" />

    
    <glyph glyph-name="empty-collection" unicode="&#58974;" d="M829.724444-82.71644466999999L512.796444 83.96800033l-316.928-166.684444 60.529778 352.938667-256.398222 249.969778 354.360889 51.484444L512.796444 892.64355533l158.435556-321.024 354.360889-51.484444-256.341333-249.969778L829.724444-82.71644466999999zM512.796444 132.15288933l260.266667-136.874667-49.720889 289.848889 210.545778 205.255111-290.986667 42.268444L512.796444 796.27377733 382.691556 532.6506663299999 91.648 490.38222233l210.545778-205.255111-49.720889-289.848889L512.796444 132.15288933z"  horiz-adv-x="1026" />

    
    <glyph glyph-name="shanchu" unicode="&#58994;" d="M772.816702 515.896118l1.167592-565.577243c0-29.655414-12.252045-45.532009-42.029232-45.532009l-431.969269 1.166569c-29.751604 0-42.845831 13.542434-42.845831 43.196825L257.139963 515.896118l-66.931389 0 0-566.963823c0-59.46944 48.394197-107.829867 107.87387-107.829867l431.317423 0c59.479673 0 107.899452 48.361451 107.899452 107.829867L837.299319 515.896118 772.816702 515.896118zM347.384313 394.551446l0-401.487024c0-2.612501 0.373507-5.136997 1.046842-7.54586 19.754926 0.01535 39.510876 0.061398 59.264778 0.12996 0.652869 2.369977 1.01205 4.851495 1.01205 7.419993L408.707984 394.377484C388.269489 394.461395 367.825878 394.517677 347.384313 394.551446zM618.125551 393.098351l0-400.032906c0-2.088568 0.239454-4.121877 0.679475-6.089695 19.97596 0.089028 39.957037 0.152473 59.941184 0.191358 0.409322 1.907443 0.635473 3.880377 0.635473 5.9055L679.381683 392.932576C658.962631 392.962252 638.543579 393.016487 618.125551 393.098351zM891.17946 624.576353 709.842439 624.576353l0 67.560722c1.098008 54.404074-43.714617 67.524906-88.451518 67.524906L406.140509 759.661981c-55.559387 0-87.242993-20.896936-87.242993-65.656349l-0.233314-69.428256L133.532761 624.577377l0-65.999157 757.6467 0L891.17946 624.576353 891.17946 624.576353zM648.56277 624.576353l-269.620717 0 0 47.245024c0 14.97097 10.555403 28.02017 25.563212 28.02017l215.696574-1.166569c14.981203 0 28.169573-10.758018 28.169573-25.730011L648.56277 624.576353 648.56277 624.576353zM484.913597 393.057419l0-400.030859c0-2.089591 0.240477-4.124947 0.673335-6.089695 19.800975 0.088004 39.602973 0.149403 59.403948 0.187265 0.408299 1.907443 0.63138 3.879354 0.63138 5.906523L545.62226 392.89062C525.387403 392.922343 505.1505 392.974531 484.913597 393.057419z"  horiz-adv-x="1024" />

    
    <glyph glyph-name="task-list" unicode="&#59088;" d="M846.986 720.825l-165.359 0 0-60.411c0-1.096-0.081-2.162-0.21-3.232l113.552 0c14.474 0 26.177-11.722 26.177-26.184l0-551.605c0-14.475-11.715-26.196-26.177-26.196l-567.992 0c-14.461 0-26.184 11.732-26.184 26.196l0 551.616c0 14.458 11.732 26.184 26.184 26.184l113.552 0c-0.128 1.065-0.216 2.132-0.216 3.231l0 60.401-165.342 0c-14.458 0-26.184-11.733-26.184-26.184l0-678.898c0-14.463 11.725-26.188 26.184-26.188l672.014 0c14.451 0 26.176 11.735 26.176 26.188l0 678.895c-0.004 14.451-11.725 26.187-26.176 26.187l0 0zM653.078 657.405c0-15.781-15.004-28.581-33.588-28.581l-217.86 0c-18.526 0-33.559 12.785-33.559 28.581l0 71.491c0 15.771 15.033 28.585 33.559 28.585l217.844 0c18.585 0 33.589-12.814 33.589-28.585l0-71.491 0.014 0zM272.427 525.132c0 11.232 4.625 22.396 12.568 30.34 7.944 7.944 19.106 12.568 30.34 12.568 11.235 0 22.399-4.624 30.339-12.568 7.945-7.944 12.568-19.108 12.568-30.34 0-11.234-4.623-22.398-12.568-30.342-7.94-7.94-19.104-12.564-30.339-12.564-11.234 0-22.396 4.624-30.34 12.564-7.944 7.945-12.568 19.109-12.568 30.342l0 0zM272.427 351.228c0 11.235 4.625 22.399 12.568 30.343 7.944 7.94 19.106 12.564 30.34 12.564 11.235 0 22.399-4.624 30.339-12.564 7.945-7.944 12.568-19.108 12.568-30.343 0-11.237-4.623-22.405-12.568-30.35-7.94-7.945-19.104-12.567-30.339-12.567-11.234 0-22.396 4.623-30.34 12.567-7.944 7.946-12.568 19.113-12.568 30.35l0 0zM272.427 179.005c0 11.235 4.625 22.396 12.568 30.338 7.944 7.945 19.106 12.567 30.34 12.567 11.235 0 22.399-4.623 30.339-12.567 7.945-7.943 12.568-19.104 12.568-30.338 0-11.234-4.623-22.399-12.568-30.34-7.94-7.943-19.104-12.567-30.339-12.567-11.234 0-22.396 4.625-30.34 12.567-7.944 7.942-12.568 19.107-12.568 30.34l0 0zM398.248 555.534l349.132 0 0-47.847-349.132 0 0 47.847zM398.248 375.173l349.132 0 0-47.868-349.132 0 0 47.868zM398.248 202.929l349.132 0 0-47.847-349.132 0 0 47.847zM369.155 202.929z"  horiz-adv-x="1024" />

    
    <glyph glyph-name="edit-three" unicode="&#58990;" d="M264.780479 180.64347599999996c-4.644787 0-9.217942 1.86958-12.542664 5.194302-3.533476 3.605108-5.40715 8.526187-5.126764 13.585413l9.213849 156.056242c0.276293 4.364401 2.079358 8.454556 5.130857 11.502985L726.510562 832.107831c3.324722 3.324722 7.830339 5.197372 12.542664 5.197372l0 0c4.711302 0 9.217942-1.873674 12.542664-5.197372l146.842393-146.771785c3.324722-3.327792 5.197372-7.830339 5.197372-12.542664 0-4.715395-1.873674-9.217942-5.197372-12.545734L433.311847 194.98818200000005c-3.047406-3.051499-7.138584-4.92108-11.502985-5.16258L265.819135 180.67519800000002C265.472234 180.64347599999996 265.12738 180.64347599999996 264.780479 180.64347599999996L264.780479 180.64347599999996zM291.318902 346.68104600000004l-7.621585-129.414465 129.308041 7.588839 447.800839 447.938985L739.052203 794.477792 291.318902 346.68104600000004 291.318902 346.68104600000004zM803.083541 586.9318519999999c-4.505617 0-9.079796 1.734504-12.542664 5.197372L658.530284 724.1418639999999c-6.932899 6.928806-6.932899 18.155499 0 25.088398 6.928806 6.928806 18.155499 6.928806 25.084305 0l132.011616-132.011616c6.928806-6.932899 6.928806-18.158568 0-25.088398C812.159244 588.66738 807.65772 586.9318519999999 803.083541 586.9318519999999L803.083541 586.9318519999999zM338.927199 186.73931100000004c-1.177825 0-2.423189 0.138146-3.601015 0.418532-9.561773 2.111081-15.732309 10.949376-13.652951 20.511149l0.276293 1.281179c0.415462 1.873674 0.901533 3.77907 1.177825 5.750981 1.039679 12.233626-2.771113 24.012903-10.878768 32.120558s-19.748786 11.850909-33.124422 10.739599l-4.364401-1.039679c-9.633405-1.521656-18.779715 4.991688-20.376073 14.69263-1.593288 9.633405 4.991688 18.779715 14.620999 20.373003 2.841721 0.660032 4.573155 1.039679 6.514367 1.248434 24.254404 2.217505 46.153156-5.269004 61.813834-20.929682 15.660678-15.660678 23.147186-37.453007 20.99722-61.327764-0.48607-3.8814-1.107217-6.652514-1.731434-9.356089C354.730117 192.87403099999995 347.176071 186.73931100000004 338.927199 186.73931100000004L338.927199 186.73931100000004zM899.338792 33.17686600000002L124.661208 33.17686600000002c-9.771551 0-17.740036 7.933693-17.740036 17.740036L106.921171 825.594487c0 9.806343 7.968485 17.740036 17.740036 17.740036l384.393717 0c9.839089 0 17.740036-7.933693 17.740036-17.740036s-7.900947-17.740036-17.740036-17.740036L142.401244 807.854451l0-739.196489 739.196489 0L881.597733 435.381228c0 9.803273 7.968485 17.740036 17.740036 17.740036 9.839089 0 17.740036-7.936763 17.740036-17.740036l0-384.464325C917.078829 41.11055899999997 909.176858 33.17686600000002 899.338792 33.17686600000002L899.338792 33.17686600000002z"  horiz-adv-x="1024" />

    
    <glyph glyph-name="tasks" unicode="&#60469;" d="M585.143345 91.428571l365.714286 0 0 73.142857-365.714286 0 0-73.142857zM365.714773 384l585.142857 0 0 73.142857-585.142857 0 0-73.142857zM731.429059 676.571429l219.428571 0 0 73.142857-219.428571 0 0-73.142857zM1024.000488 201.142857l0-146.285714q0-14.848-10.825143-25.746286t-25.746286-10.825143l-950.857143 0q-14.848 0-25.746286 10.825143t-10.825143 25.746286l0 146.285714q0 14.848 10.825143 25.746286t25.746286 10.825143l950.857143 0q14.848 0 25.746286-10.825143t10.825143-25.746286zM1024.000488 493.714286l0-146.285714q0-14.848-10.825143-25.746286t-25.746286-10.825143l-950.857143 0q-14.848 0-25.746286 10.825143t-10.825143 25.746286l0 146.285714q0 14.848 10.825143 25.746286t25.746286 10.825143l950.857143 0q14.848 0 25.746286-10.825143t10.825143-25.746286zM1024.000488 786.285714l0-146.285714q0-14.848-10.825143-25.746286t-25.746286-10.825143l-950.857143 0q-14.848 0-25.746286 10.825143t-10.825143 25.746286l0 146.285714q0 14.848 10.825143 25.746286t25.746286 10.825143l950.857143 0q14.848 0 25.746286-10.825143t10.825143-25.746286z"  horiz-adv-x="1025" />

    
    <glyph glyph-name="left" unicode="&#58884;" d="M708.425956 704.4437330000001L388.027733 384l320.420978-320.420978c13.312-13.334756 13.312-34.952533-0.022756-48.264533-13.312-13.334756-34.907022-13.334756-48.241778-0.022756L315.619556 359.83360000000005c0 0.045511-0.022756 0.045511-0.045511 0.045511-9.989689 9.966933-12.4928 24.644267-7.463822 37.000533 0.887467 2.230044 2.6624 4.096 4.050489 6.121244 1.183289 1.706667 1.911467 3.618133 3.413333 5.165511l0 0c0 0 0 0 0 0.022756 0.022756 0 0.045511 0 0.045511 0l344.564622 344.519111c13.334756 13.312 34.907022 13.312 48.241778 0S721.760711 717.755733 708.425956 704.4437330000001z"  horiz-adv-x="1024" />

    
    <glyph glyph-name="bell" unicode="&#58923;" d="M521.109504-73.146368q0 9.142272-9.142272 9.142272-33.712128 0-57.996288 24.28416t-24.28416 57.996288q0 9.142272-9.142272 9.142272t-9.142272-9.142272q0-41.711616 29.426688-71.138304t71.138304-29.426688q9.142272 0 9.142272 9.142272zm-380.547072 164.560896l742.8096 0q-151.990272 171.4176-151.990272 475.398144 0 29.140992-13.713408 59.99616t-39.426048 58.853376-69.424128 45.997056-96.850944 17.998848-96.850944-17.998848-69.424128-45.997056-39.426048-58.853376-13.713408-59.99616q0-303.980544-151.990272-475.398144zm846.802944 0q0-29.712384-21.712896-51.42528t-51.42528-21.712896l-255.983616 0q0-60.567552-42.8544-103.421952t-103.421952-42.8544-103.421952 42.8544-42.8544 103.421952l-255.983616 0q-29.712384 0-51.42528 21.712896t-21.712896 51.42528q28.5696 23.998464 51.996672 50.282496t48.56832 68.281344 42.568704 90.565632 28.5696 117.706752 11.142144 148.56192q0 86.851584 66.852864 161.41824t175.417344 90.565632q-4.571136 10.856448-4.571136 22.284288 0 22.85568 15.998976 38.854656t38.854656 15.998976 38.854656-15.998976 15.998976-38.854656q0-11.42784-4.571136-22.284288 108.56448-15.998976 175.417344-90.565632t66.852864-161.41824q0-79.423488 11.142144-148.56192t28.5696-117.706752 42.568704-90.565632 48.56832-68.281344 51.996672-50.282496z"  horiz-adv-x="1024" />

    
    <glyph glyph-name="chart" unicode="&#58992;" d="M1024.562-0.211 0-0.211 0 768.211l64.035 0 0-704.387 960.527 0L1024.562-0.211zM320.176 127.859l-128.07 0L192.106 384l128.07 0L320.176 127.859zM512.281 127.859 384.211 127.859 384.211 640.141 512.281 640.141 512.281 127.859zM704.386 127.859l-128.07 0L576.316 512.07l128.07 0L704.386 127.859zM896.492 127.859l-128.07 0L768.422 704.176l128.07 0L896.492 127.859z"  horiz-adv-x="1025" />

    
    <glyph glyph-name="chart1" unicode="&#58996;" d="M576 448 576 896c265.088 0 448-182.912 448-448L576 448zM480-128C214.912-128 0 86.912 0 352 0 641.088 210.912 832 512 832l0-448 448 0C960 118.912 745.088-128 480-128z"  horiz-adv-x="1024" />

    
    <glyph glyph-name="QQ-space" unicode="&#59108;" d="M656.413875 447.178363L376.618329 447.178363 565.505877 414.690695 367.589733 248.611084 665.442471 248.611084 493.229817 296.39862200000005ZM511.999985 896C229.232496 896 0 666.767504 0 383.99637700000005c0-282.767489 229.232496-511.996347 511.999985-511.996347 282.771127 0 512.00726 229.228858 512.00726 511.996347C1024.007246 666.767504 794.771112 896 511.999985 896zM710.570902 140.30066599999998c0-18.04628 0-18.04628-18.053555-18.04628l-173.671344 110.438431-169.306188-110.438431c-18.049917 0-16.678531 0-16.678531 11.840484l16.678531 204.780351L215.434968 462.721954l0 2.979219 205.53334 0 91.035315 180.048108 17.042294 0 91.268123-180.048108 181.685041 0c6.573196 0 6.573196 1.82609 6.573196-4.747106l-134.10121-122.078845L710.570902 140.30066599999998z"  horiz-adv-x="1025" />

    
    <glyph glyph-name="reply" unicode="&#59308;" d="M834.37778 179.86167l-85.74999 0c-11.879562 0-21.505803 9.657964-21.505803 21.441335 0 11.879562 9.625218 21.537526 21.505803 21.537526l85.74999 0c23.663956 0 42.97886 19.266809 42.97886 42.97886l0 429.788603c0 23.712051-19.314904 42.97886-42.97886 42.97886l-644.682905 0c-23.712051 0-42.97886-19.266809-42.97886-42.97886l0-429.788603c0-23.712051 19.266809-42.97886 42.97886-42.97886l365.224122 0c5.692652 0 11.17655-2.318812 15.173584-6.299473l193.46934-193.404871c8.394181-8.425903 8.394181-22.032806 0-30.379914-4.14132-4.204765-9.673313-6.347568-15.141862-6.347568-5.516644 0-11.048637 2.142803-15.189957 6.347568L546.029536 179.86167 189.694875 179.86167c-47.455825 0-86.005816 38.533618-86.005816 85.957721l0 429.788603c0 47.376007 38.549991 85.957721 86.005816 85.957721l644.682905 0c47.424102 0 85.957721-38.581714 85.957721-85.957721l0-429.788603C920.335501 218.39528800000005 881.801882 179.86167 834.37778 179.86167L834.37778 179.86167zM318.631456 437.734832c-23.760147 0-42.97886 19.218714-42.97886 42.97886s19.218714 42.97886 42.97886 42.97886c23.712051 0 42.97886-19.218714 42.97886-42.97886S342.343507 437.734832 318.631456 437.734832L318.631456 437.734832zM512.004605 437.734832c-23.743774 0-42.97886 19.218714-42.97886 42.97886s19.235087 42.97886 42.97886 42.97886c23.760147 0 42.97886-19.218714 42.97886-42.97886S535.763728 437.734832 512.004605 437.734832L512.004605 437.734832zM705.441199 437.734832c-23.760147 0-42.97886 19.218714-42.97886 42.97886s19.218714 42.97886 42.97886 42.97886c23.712051 0 42.97886-19.218714 42.97886-42.97886S729.15325 437.734832 705.441199 437.734832L705.441199 437.734832z"  horiz-adv-x="1024" />

    
    <glyph glyph-name="top" unicode="&#59070;" d="M511.327176 386.119267M612.294752 414.205952M168.067298 230.58491100000003M941.880189 204.48241700000005L534.836613 611.527017c-12.488429 12.487406-32.738635 12.487406-45.227064 0L82.566996 204.484464c-12.488429-12.491499-12.489452-32.739659 0.001023-45.229111 12.488429-12.489452 32.736589-12.487406 45.225017 0l384.430556 384.430556 384.429533-384.430556c12.489452-12.487406 32.738635-12.487406 45.227064 0C954.368618 171.74480500000004 954.368618 191.99501099999998 941.880189 204.48241700000005z"  horiz-adv-x="1024" />

    
    <glyph glyph-name="school" unicode="&#59529;" d="M196.266667 486.4l19.911111 0c17.066667 0 28.444444 11.377778 28.444444 28.444444l0 19.911111c0 17.066667-11.377778 28.444444-28.444444 28.444444L196.266667 563.2c-17.066667 0-28.444444-11.377778-28.444444-28.444444l0-19.911111C167.822222 500.622222 182.044444 486.4 196.266667 486.4L196.266667 486.4zM196.266667 335.644444l19.911111 0c17.066667 0 28.444444 11.377778 28.444444 28.444444L244.622222 384c0 17.066667-11.377778 28.444444-28.444444 28.444444L196.266667 412.444444c-17.066667 0-28.444444-11.377778-28.444444-28.444444l0-19.911111C167.822222 347.02222200000006 182.044444 335.644444 196.266667 335.644444L196.266667 335.644444zM196.266667 640l19.911111 0c17.066667 0 28.444444 11.377778 28.444444 28.444444L244.622222 688.355556c0 17.066667-11.377778 28.444444-28.444444 28.444444L196.266667 716.8c-17.066667 0-28.444444-11.377778-28.444444-28.444444L167.822222 668.444444C167.822222 651.377778 182.044444 640 196.266667 640L196.266667 640zM369.777778 486.4l19.911111 0c17.066667 0 28.444444 11.377778 28.444444 28.444444l0 19.911111c0 17.066667-11.377778 28.444444-28.444444 28.444444L369.777778 563.2c-17.066667 0-28.444444-11.377778-28.444444-28.444444l0-19.911111C341.333333 500.622222 352.711111 486.4 369.777778 486.4L369.777778 486.4zM369.777778 640l19.911111 0c17.066667 0 28.444444 11.377778 28.444444 28.444444L418.133333 688.355556c0 17.066667-11.377778 28.444444-28.444444 28.444444L369.777778 716.8c-17.066667 0-28.444444-11.377778-28.444444-28.444444L341.333333 668.444444C341.333333 651.377778 352.711111 640 369.777778 640L369.777778 640zM369.777778 31.28888900000004l19.911111 0c17.066667 0 28.444444 11.377778 28.444444 28.444444l0 19.911111c0 17.066667-11.377778 28.444444-28.444444 28.444444L369.777778 108.088889c-17.066667 0-28.444444-11.377778-28.444444-28.444444l0-19.911111C341.333333 45.51111100000003 352.711111 31.28888900000004 369.777778 31.28888900000004L369.777778 31.28888900000004zM369.777778 335.644444l19.911111 0c17.066667 0 28.444444 11.377778 28.444444 28.444444L418.133333 384c0 17.066667-11.377778 28.444444-28.444444 28.444444L369.777778 412.444444c-17.066667 0-28.444444-11.377778-28.444444-28.444444l0-19.911111C341.333333 347.02222200000006 352.711111 335.644444 369.777778 335.644444L369.777778 335.644444zM369.777778 184.88888899999995l19.911111 0c17.066667 0 28.444444 11.377778 28.444444 28.444444l0 19.911111c0 17.066667-11.377778 28.444444-28.444444 28.444444L369.777778 261.688889c-17.066667 0-28.444444-11.377778-28.444444-28.444444L341.333333 213.33333300000004C341.333333 196.26666699999998 352.711111 184.88888899999995 369.777778 184.88888899999995L369.777778 184.88888899999995zM196.266667 184.88888899999995l19.911111 0c17.066667 0 28.444444 11.377778 28.444444 28.444444l0 19.911111c0 17.066667-11.377778 28.444444-28.444444 28.444444L196.266667 261.688889c-17.066667 0-28.444444-11.377778-28.444444-28.444444L167.822222 213.33333300000004C167.822222 196.26666699999998 182.044444 184.88888899999995 196.266667 184.88888899999995L196.266667 184.88888899999995zM671.288889 31.28888900000004l19.911111 0c17.066667 0 28.444444 11.377778 28.444444 28.444444l0 19.911111c0 17.066667-11.377778 28.444444-28.444444 28.444444l-19.911111 0c-17.066667 0-28.444444-11.377778-28.444444-28.444444l0-19.911111C642.844444 45.51111100000003 657.066667 31.28888900000004 671.288889 31.28888900000004L671.288889 31.28888900000004zM196.266667 31.28888900000004l19.911111 0c17.066667 0 28.444444 11.377778 28.444444 28.444444l0 19.911111c0 17.066667-11.377778 28.444444-28.444444 28.444444L196.266667 108.088889c-17.066667 0-28.444444-11.377778-28.444444-28.444444l0-19.911111C167.822222 45.51111100000003 182.044444 31.28888900000004 196.266667 31.28888900000004L196.266667 31.28888900000004zM958.577778 543.2888889999999L568.888889 543.2888889999999 568.888889 810.666667c0 31.288889-25.6 56.888889-56.888889 56.888889L85.333333 867.555556C54.044444 867.555556 28.444444 841.955556 28.444444 810.666667l0-853.333333c0-31.288889 25.6-56.888889 56.888889-56.888889l443.733333 0c0 0 2.844444 0 2.844444 0 5.688889 0 19.911111 0 34.133333 0l389.688889 0c19.911111 0 36.977778 17.066667 36.977778 36.977778l0 568.888889C995.555556 526.222222 978.488889 543.2888889999999 958.577778 543.2888889999999L958.577778 543.2888889999999zM512-42.66666699999996L85.333333-42.66666699999996 85.333333 810.666667l426.666667 0L512-42.66666699999996 512-42.66666699999996zM938.666667-42.66666699999996L568.888889-42.66666699999996 568.888889 486.4l369.777778 0L938.666667-42.66666699999996 938.666667-42.66666699999996zM671.288889 335.644444l19.911111 0c17.066667 0 28.444444 11.377778 28.444444 28.444444L719.644444 384c0 17.066667-11.377778 28.444444-28.444444 28.444444l-19.911111 0c-17.066667 0-28.444444-11.377778-28.444444-28.444444l0-19.911111C642.844444 347.02222200000006 657.066667 335.644444 671.288889 335.644444L671.288889 335.644444zM671.288889 184.88888899999995l19.911111 0c17.066667 0 28.444444 11.377778 28.444444 28.444444l0 19.911111c0 17.066667-11.377778 28.444444-28.444444 28.444444l-19.911111 0c-17.066667 0-28.444444-11.377778-28.444444-28.444444L642.844444 213.33333300000004C642.844444 196.26666699999998 657.066667 184.88888899999995 671.288889 184.88888899999995L671.288889 184.88888899999995zM816.355556 335.644444l19.911111 0c17.066667 0 28.444444 11.377778 28.444444 28.444444L864.711111 384c0 17.066667-11.377778 28.444444-28.444444 28.444444l-19.911111 0c-17.066667 0-28.444444-11.377778-28.444444-28.444444l0-19.911111C787.911111 347.02222200000006 799.288889 335.644444 816.355556 335.644444L816.355556 335.644444zM816.355556 31.28888900000004l19.911111 0c17.066667 0 28.444444 11.377778 28.444444 28.444444l0 19.911111c0 17.066667-11.377778 28.444444-28.444444 28.444444l-19.911111 0c-17.066667 0-28.444444-11.377778-28.444444-28.444444l0-19.911111C787.911111 45.51111100000003 799.288889 31.28888900000004 816.355556 31.28888900000004L816.355556 31.28888900000004zM816.355556 184.88888899999995l19.911111 0c17.066667 0 28.444444 11.377778 28.444444 28.444444l0 19.911111c0 17.066667-11.377778 28.444444-28.444444 28.444444l-19.911111 0c-17.066667 0-28.444444-11.377778-28.444444-28.444444L787.911111 213.33333300000004C787.911111 196.26666699999998 799.288889 184.88888899999995 816.355556 184.88888899999995L816.355556 184.88888899999995zM816.355556 184.88888899999995"  horiz-adv-x="1024" />

    
    <glyph glyph-name="more-big" unicode="&#58898;" d="M512 671.219512C574.06439 671.219512 624.390244 721.5453660000001 624.390244 783.6097560000001 624.390244 845.674146 574.06439 896 512 896S399.609756 845.674146 399.609756 783.6097560000001C399.609756 721.5453660000001 449.93561 671.219512 512 671.219512zM512 496.390244C449.93561 496.390244 399.609756 446.06439 399.609756 384 399.609756 321.93561 449.93561 271.60975599999995 512 271.60975599999995S624.390244 321.93561 624.390244 384C624.390244 446.06439 574.06439 496.390244 512 496.390244zM512 96.78048799999999C449.93561 96.78048799999999 399.609756 46.454634000000055 399.609756-15.609755999999948 399.609756-77.67414599999995 449.93561-128 512-128S624.390244-77.67414599999995 624.390244-15.609755999999948C624.390244 46.454634000000055 574.06439 96.78048799999999 512 96.78048799999999z"  horiz-adv-x="1024" />

    
    <glyph glyph-name="less" unicode="&#58947;" d="M117.734106 437.786746L906.212134 437.786746C925.995765 437.786746 959.972 413.720246 959.972 384.02688 959.972 354.33351400000004 925.995765 330.267014 906.212134 330.267014L117.734106 330.267014C97.950475 330.267014 63.97424 354.33351400000004 63.97424 384.02688 63.97424 413.720246 97.950475 437.786746 117.734106 437.786746Z"  horiz-adv-x="1024" />

    
    <glyph glyph-name="feedback" unicode="&#58929;" d="M360.389512 338.45571099999995l184.919617 0 0-30.819936-184.919617 0 0 30.819936ZM360.389512 415.018457l308.200384 0 0-30.819936-308.200384 0 0 30.819936ZM360.389512 491.582227l308.200384 0 0-30.819936-308.200384 0 0 30.819936ZM511.999488 831.978894c-247.27171 0-447.724091-200.452381-447.724091-447.724091s200.452381-447.724091 447.724091-447.724091 447.724091 200.453405 447.724091 447.724091S759.271198 831.978894 511.999488 831.978894zM761.050728 275.842675c0-34.041304-27.599591-61.639872-61.640895-61.639872l-154.09968 0 0-123.280768L422.029384 214.201779 329.569576 214.201779c-34.040281 0-61.639872 27.599591-61.639872 61.639872L267.929704 522.402163c0 34.040281 27.599591 61.639872 61.639872 61.639872l369.840256 0c34.042327 0 61.640895-27.599591 61.640895-61.639872L761.050728 275.842675z"  horiz-adv-x="1024" />

    
    <glyph glyph-name="email2" unicode="&#58897;" d="M856.704 182.72c-0.96 0.768-2.048 1.6-3.328 2.496-0.384 0.512-0.896 0.896-1.152 1.216-4.032 2.944-7.616 3.328-13.504 4.288l-72.64 9.92c-1.088 0.192-1.984 0.192-2.944 0.32-1.408 0-2.88-0.128-4.16-0.384l-15.168 11.648c-5.12 4.032-12.544 3.008-16.512-2.368-4.032-5.376-3.072-13.12 2.048-17.344l14.144-10.752c0-2.752 0.512-5.568 1.344-8.384l23.488-70.336c1.344-3.84 2.688-6.848 4.416-9.408 0.832-1.216 1.664-2.368 3.008-3.392 2.56-3.456 5.632-7.104 6.912-8.256l110.72-88.448 73.792 100.608L856.704 182.72zM758.272 178.368c-0.64 1.6-0.768 3.008-0.768 4.032 0.128 1.728 0.512 2.24 1.152 2.88 0.512 0.512 1.728 1.216 4.16 1.088 0.448 0 0.96 0 1.408-0.128l67.392-9.216c-2.304-3.008-3.776-6.656-3.904-10.624-0.128-3.008 0.64-6.016 1.792-8.768 0.384-0.64 0.384-1.024 0.384-1.152 0 0 0.192-1.344-4.16-2.112-11.52-1.344-18.88-12.032-19.136-23.36-0.128-1.6 0-3.392 0.256-5.056 0.128-1.024 0.256-1.792 0.256-2.688-0.128-1.344-0.384-2.24-0.64-3.008-0.256-0.448-0.704-0.896-1.024-1.344-0.128 0-0.32 0-0.64 0-0.192 0-0.512 0-0.768 0.128-1.216 0.32-2.368 0.448-3.648 0.448-7.808 0.192-14.976-4.032-19.136-10.752L758.272 178.368zM979.136-36.48l38.656 52.608c9.728 13.248 7.872 31.808-4.096 41.344l-24.896 19.904-73.856-100.608 25.024-19.904C951.744-52.672 969.472-49.728 979.136-36.48zM872.128 203.968l0.32 0.384 9.664-7.744L882.112 491.968c0 27.904-10.112 53.44-26.56 72.768-1.344 1.984-2.944 3.776-4.8 5.376l-0.256 0.256c-4.672 4.8-9.792 9.152-15.232 13.056L515.2 833.344C494.528 853.824 467.648 864 441.088 864c-26.624 0-53.44-10.176-74.112-30.656l-320-249.92c-5.44-3.84-10.624-8.192-15.296-13.056L31.36 570.112C29.504 568.512 27.904 566.656 26.56 564.672 10.176 545.344 0 519.872 0 491.968l0-477.568c0.064-60.992 47.808-110.336 106.304-110.4l669.568 0c44.992 0.064 83.52 29.312 99.008 70.656l-44.736 35.84c-0.768-9.856-4.032-19.072-9.216-26.944L581.12 159.744l244.864 152.96 0-0.576 4.224 2.624 0-95.488 12.096-1.6 0.384-0.128c4.608-0.768 14.656-1.728 24.256-8.896l0.768-0.576 0.64-0.512c0.512-0.448 1.024-0.832 1.472-1.344 1.024-0.832 1.728-1.344 2.432-1.984L872.128 203.968 872.128 203.968zM60.864-16.256c-5.632 8.896-8.96 19.392-8.96 30.656L51.904 314.752l4.224-2.752L56.128 312.704l238.208-148.8L60.864-16.256zM765.248-41.856 114.944-41.856l308.416 238.016c0.32 0.256 0.32 0.256 0.768 0.576C425.472 197.44 429.12 198.4 432.128 198.4l0.384 0 0.192 0 0 0c2.048 0 4.288-0.384 5.952-0.896s2.432-1.152 2.496-1.024L765.248-41.856zM815.616 369.344l-280.896-175.488-63.552 46.72c-11.584 8.384-24.32 11.648-38.464 11.904l0 0L432.64 252.48 432.192 252.48c-14.72-0.256-27.968-3.904-40-13.056l-52.672-40.704L66.496 369.344 66.496 527.68c0 0.896 0.128 1.792 0.256 2.688 0 0 0.064 0.064 0.128 0.128C67.072 530.688 67.328 530.944 67.52 531.2l0 0c2.624 2.816 5.568 5.312 8.768 7.488L77.44 539.584l15.04 11.776 697.152 0 15.04-11.776 1.216-0.896c3.136-2.176 6.144-4.672 8.768-7.488l0 0c0.256-0.256 0.512-0.512 0.704-0.768 0.064 0 0.128-0.064 0.128-0.128 0.128-0.896 0.256-1.728 0.256-2.624L815.616 369.344 815.616 369.344zM727.232 418.24 165.056 418.24c-9.536 0-17.28-8.128-17.28-18.048 0-9.92 7.744-18.048 17.28-18.048l562.176 0c9.408 0 17.28 8.128 17.28 18.048C744.512 410.112 736.768 418.24 727.232 418.24zM727.232 494.912 165.056 494.912c-9.536 0-17.28-8.064-17.28-18.048 0-9.984 7.744-18.048 17.28-18.048l562.176 0c9.408 0 17.28 8.064 17.28 18.048C744.512 486.848 736.768 494.912 727.232 494.912zM640.768 341.504 251.584 341.504c-9.536 0-17.28-8.064-17.28-17.984 0-9.984 7.744-17.984 17.28-17.984l389.184 0c9.536 0 17.344 8 17.344 17.984C658.048 333.44 650.304 341.504 640.768 341.504z"  horiz-adv-x="1025" />

    
    <glyph glyph-name="shenhe" unicode="&#58972;" d="M639.531236-123.430684l245.896533 248.153884-245.896533-0.291271L639.531236-123.430684zM639.531236-123.430684M750.733084 896 164.923164 896 23.274382 896l0-215.076409 0-804.37248 141.648782 0 409.172196 0L574.09536 189.722169l176.637724 0 141.648782 0 0 50.54464L892.381867 386.484907l0 70.61504L892.381867 603.973404l0 76.950187L892.381867 896 750.733084 896 750.733084 896zM164.923164 166.839182l0 73.436729 227.956053 0 0-73.436729L164.923164 166.839182 164.923164 166.839182zM750.733084 386.484907 164.923164 386.484907l0 70.61504 585.80992 0L750.733084 386.484907 750.733084 386.484907zM750.733084 603.973404 164.923164 603.973404l0 76.950187 585.80992 0L750.733084 603.973404 750.733084 603.973404zM750.733084 603.973404"  horiz-adv-x="1024" />

    
    <glyph glyph-name="close-one" unicode="&#58931;" d="M825.173652-9.525702000000024c21.502733-21.503756 56.491619-21.503756 77.996398 0 21.503756 21.503756 21.503756 56.492642 0 77.996398L589.32511 382.313591l3.618411 3.617387 310.225507 310.227554c10.416234 10.416234 16.152888 24.26566 16.152888 38.997176s-5.736655 28.580942-16.152888 38.997176c-21.502733 21.502733-56.491619 21.503756-77.996398 0L511.330758 460.30999 197.485817 774.152884c-10.751878 10.751878-24.874527 16.127306-38.997176 16.127306-14.123672 0-28.246321-5.375427-38.998199-16.127306-10.417257-10.416234-16.153912-24.26566-16.153912-38.997176s5.736655-28.580942 16.153912-38.997176l313.843918-313.844941L119.490441 68.47069699999997c-21.503756-21.503756-21.503756-56.492642 0-77.996398s56.492642-21.50478 77.995375 0L511.329734 304.318216 825.173652-9.525702000000024z"  horiz-adv-x="1024" />

    
    <glyph glyph-name="dot" unicode="&#59439;" d="M480 416m-160 0a2.5 2.5 0 1 1 320 0 2.5 2.5 0 1 1-320 0Z"  horiz-adv-x="1024" />

    
    <glyph glyph-name="release" unicode="&#58930;" d="M1024 896L384 192 0 320 1024 896ZM1024 896L1024 0 483.414063 163.14843499999995 1024 896ZM384 155.51171799999997L364.578125 161.69921899999997 512-128 606.945313 90.5 476.078125 128 496.279297-64 384 155.51171799999997Z"  horiz-adv-x="1024" />

    
    <glyph glyph-name="more-small" unicode="&#58933;" d="M512 640C547.346224 640 576 668.653776 576 704 576 739.346224 547.346224 768 512 768 476.653776 768 448 739.346224 448 704 448 668.653776 476.653776 640 512 640ZM512 320C547.346224 320 576 348.653776 576 384 576 419.346224 547.346224 448 512 448 476.653776 448 448 419.346224 448 384 448 348.653776 476.653776 320 512 320ZM512 0C547.346224 0 576 28.653778999999986 576 64 576 99.34622100000001 547.346224 128 512 128 476.653776 128 448 99.34622100000001 448 64 448 28.653778999999986 476.653776 0 512 0Z"  horiz-adv-x="1024" />

    
    <glyph glyph-name="solid-playing" unicode="&#58934;" d="M512 827.8089219999999c-245.204631 0-443.808922-198.60429-443.808922-443.808922s198.60429-443.808922 443.808922-443.808922 443.808922 198.60429 443.808922 443.808922S757.203608 827.8089219999999 512 827.8089219999999zM423.23842 184.28644599999996L423.23842 583.7145780000001l266.284739-199.713554L423.23842 184.28644599999996z"  horiz-adv-x="1024" />

    
    <glyph glyph-name="history" unicode="&#58909;" d="M532.960893 351.929584c-4.776793-7.736195-13.31219-12.890588-22.972201-12.890588L312.090483 339.038996c-14.875802 0-26.941606 11.977799-26.941606 26.975375 0 14.902408 12.153808 26.976398 26.941606 26.976398l179.87881 0L491.969293 644.703627c0 14.937201 11.977799 27.047006 26.976398 27.047006 14.893198 0 26.976398-11.908214 26.976398-27.047006l0-269.62481C545.923112 365.25917000000004 540.759509 356.66339800000003 532.960893 351.929584zM509.953899-65.61004400000002c248.304226 0 449.610044 201.295586 449.610044 449.610044 0 248.312412-201.305819 449.610044-449.610044 449.610044-248.303202 0-449.610044-201.297632-449.610044-449.610044C60.343855 135.68554099999994 261.649674-65.61004400000002 509.953899-65.61004400000002z"  horiz-adv-x="1024" />

    
    <glyph glyph-name="news" unicode="&#58881;" d="M867.632673 290.535305L867.632673 502.331036c0 196.453301-159.223375 355.630626-355.632673 355.630626-196.451254 0-355.632673-159.221328-355.632673-355.630626l0-211.768101c-30.054503-14.266935-50.802036-44.886303-50.802036-80.359212 0-49.001017 39.814798-88.905866 88.925309-88.905866l635.013685 0c49.173956 0 88.929402 39.803541 88.929402 88.905866C918.433686 245.59476700000005 897.665687 276.23971700000004 867.632673 290.535305zM640.827087 88.11510599999997l-257.765715-0.25992c-22.839171 0.25992-23.473621-25.402553-23.473621-25.402553 0-84.176145 68.237127-152.413272 152.412248-152.413272s152.412248 68.237127 152.412248 152.413272C664.411225 62.45263299999999 664.411225 87.855186 640.827087 88.11510599999997z"  horiz-adv-x="1024" />

    
    <glyph glyph-name="user" unicode="&#58912;" d="M880.772948 34.875553999999966l0-16.623609c0-80.719416-131.784442-80.719416-284.407492-80.719416l-168.754448 0c-158.874427 0-284.383956 0-284.383956 80.719416l0 16.623609c0 154.426115 127.546931 280.028764 284.383956 280.028764l168.754448 0C753.191224 314.904319 880.772948 189.265854 880.772948 34.875553999999966zM748.501412 589.122751c0-133.092227-109.88262-241.345744-244.948805-241.345744-135.052882 0-244.948805 108.291378-244.948805 241.345744 0 133.066645 109.895923 241.345744 244.948805 241.345744C638.618792 830.467471 748.501412 722.2139549999999 748.501412 589.122751z"  horiz-adv-x="1024" />

    
    <glyph glyph-name="correct" unicode="&#58980;" d="M456.899566 167.477618c-15.978926-15.977903-40.33873-18.47477-58.932204-7.492648-3.446495 2.039449-9.653871 9.990538-9.653871 9.990538L188.797435 369.490541c-18.938328 18.938328-18.938328 47.148833 0 66.084091 18.934235 18.938328 49.64263 16.442484 68.579935-2.495844l165.227112-165.225065 312.24449 312.24142c18.938328 18.938328 49.6457 21.435195 68.583005 2.495844 18.938328-18.940374 18.939351-47.149856 0-66.085114L456.909799 167.49296800000002c0 0-0.005117-0.00921-0.010233-0.013303l0 0L456.899566 167.477618zM510.742868 831.909309c-246.752894 0-446.786743-200.032826-446.786743-446.786743 0-246.75187 200.033849-446.785719 446.786743-446.785719 246.752894 0 446.787766 200.034872 446.787766 446.785719C957.531658 631.874437 757.495762 831.909309 510.742868 831.909309L510.742868 831.909309 510.742868 831.909309 510.742868 831.909309z"  horiz-adv-x="1024" />

    
    <glyph glyph-name="clock" unicode="&#58926;" d="M507.773234 329.33805299999995c-18.053168 0-32.661887 14.638395-32.661887 32.661887 0 18.052145 14.608719 32.659841 32.661887 32.659841 60.217477 0 120.43393 0 180.590008 0 18.052145 0 32.661887-14.607696 32.661887-32.659841 0-18.023492-14.609743-32.661887-32.661887-32.661887C628.207164 329.33805299999995 567.99071 329.33805299999995 507.773234 329.33805299999995zM477.12112 519.49802c0 18.018376 14.640442 32.660864 32.692586 32.660864 17.987676 0 32.659841-14.642488 32.659841-32.660864L542.473547 362.762303c0-18.052145-14.672164-32.659841-32.659841-32.659841-18.052145 0-32.692586 15.117302-32.692586 33.171494L477.12112 519.49802zM509.813706 786.586055c117.120464 0 223.266993-47.555086 300.06817-124.360356l0.127913 0c76.806293-76.801177 124.32761-182.981475 124.32761-300.225759 0-117.121488-47.521317-223.268016-124.32761-300.069193l-0.127913-0.127913c-76.8022-76.806293-182.947705-124.391055-300.06817-124.391055-117.246331 0-223.423559 47.52234-300.260551 124.391055l0 0.127913C132.749932 138.73192400000005 85.194846 244.87845200000004 85.194846 361.99994000000004c0 117.244284 47.555086 223.424582 124.358309 300.225759C286.390147 739.060645 392.567375 786.586055 509.813706 786.586055L509.813706 786.586055zM763.891426 616.106312c-65.001433 64.967664-154.884556 105.159038-254.077719 105.159038-99.224886 0-189.073216-40.220027-254.076696-105.22146-65.001433-64.97278-105.22146-154.822135-105.22146-254.04395 0-99.258655 40.220027-189.076286 105.156992-254.077719l0.064468 0.061398c65.00348-65.001433 154.850787-105.251136 254.076696-105.251136 99.193163 0 189.076286 40.249703 254.077719 105.189737 64.937988 65.001433 105.124246 154.819065 105.124246 254.077719 0 99.221816-40.186258 189.07117-105.188714 254.04395L763.891426 616.106312zM228.404502 825.466574c13.999852 11.351536 34.541701 9.214872 45.929052-4.783956 11.352559-13.973246 9.249665-34.576493-4.753257-45.961798L142.860197 671.7936119999999c-14.000875-11.384281-34.57547-9.248641-45.959751 4.754281-11.355629 14.002922-8.835226 34.892695 5.16565 46.278L228.404502 825.466574zM791.191188 825.466574c-14.030551 11.351536-34.574447 9.214872-45.929052-4.783956-11.418051-13.973246-9.249665-34.576493 4.722558-45.961798l126.749776-102.927207c13.96813-11.384281 34.576493-9.248641 45.929052 4.754281 11.354606 14.002922 8.865925 34.892695-5.166673 46.278L791.191188 825.466574z"  horiz-adv-x="1024" />

    
    <glyph glyph-name="review" unicode="&#58998;" d="M275.726067 699.065267c21.727407 0 39.3392 17.730444 39.3392 39.346348l0 118.247755c0 21.728836-17.723297 39.34063-39.3392 39.34063-21.727407 0-39.34063-17.723297-39.34063-39.34063l0-118.136252C236.385437 716.795711 254.115881 699.065267 275.726067 699.065267L275.726067 699.065267zM905.980969 817.32017l-78.797052 0 0-78.797052c0-43.456243-35.33652-78.797052-78.797052-78.797052-43.456243 0-78.798481 35.340809-78.798481 78.797052l0 78.797052L354.523118 817.32017l0-78.797052c0-43.456243-35.33652-78.797052-78.797052-78.797052-43.456243 0-78.791333 35.340809-78.791333 78.797052l0 78.797052-78.797052 0c-65.189368 0-118.137681-52.948314-118.137681-118.137681l0-709.046236c0-65.187938 52.948314-118.136252 118.137681-118.136252l787.843288 0c65.18222 0 118.130534 52.948314 118.130534 118.136252l0 709.046236C1024.228725 764.371856 971.280411 817.32017 905.980969 817.32017L905.980969 817.32017zM945.431673-9.863747999999987c0-21.727407-17.723297-39.3392-39.3392-39.3392l-787.843288 0c-21.727407 0-39.34063 17.723297-39.34063 39.3392L78.908555 541.588385l866.523118 0L945.431673-9.863747999999987 945.431673-9.863747999999987zM748.386866 699.065267c21.727407 0 39.3392 17.730444 39.3392 39.346348l0 118.247755c0 21.728836-17.723297 39.34063-39.3392 39.34063-21.728836 0-39.34063-17.723297-39.34063-39.34063l0-118.136252C709.046236 716.795711 726.769533 699.065267 748.386866 699.065267L748.386866 699.065267zM451.842573 51.20428900000002c7.666562-7.660844 19.673174-13.490462 30.539022-13.490462 10.861559 0 21.84034 6.744516 28.820728 17.037123L744.382756 398.635515c7.437838 10.867277 4.57878 25.731517-6.405718 33.169354l-39.567925 26.870851c-10.861559 7.437838-25.844449 4.461559-33.165066-6.287067L471.515747 166.711637 382.54474 255.68264499999998c-9.264776 9.264776-24.47639 9.264776-33.85124 0l-33.739736-33.85124c-9.374849-9.257628-9.374849-24.469243 0-33.84981L451.842573 51.20428900000002 451.842573 51.20428900000002zM451.842573 51.20428900000002"  horiz-adv-x="1025" />

    
    <glyph glyph-name="Watermark" unicode="&#59120;" d="M512 896C229.230482 896 0 666.7695180000001 0 384s229.230482-512 512-512 512 229.230482 512 512S794.769518 896 512 896zM512-76.799488c-254.492183 0-460.799488 206.307305-460.799488 460.799488S257.507817 844.799488 512 844.799488s460.799488-206.307305 460.799488-460.799488S766.492183-76.799488 512-76.799488zM230.400384 128.00256000000002l271.756564 0L502.156948 221.091724 320.983345 221.091724l0 116.364335 181.173602 0 0 93.091724L320.983345 430.547782l0 116.364335 181.173602 0 0 93.089164L230.400384 640.00128 230.400384 128.00256000000002zM547.450348 128.00256000000002l90.582961 0L638.03331 546.9133959999999l90.582961 0L728.616271 221.091724l-45.289561 0 0-93.089164L819.200512 128.00256000000002 819.200512 640.00256 547.450348 640.00256 547.450348 128.00256000000002z"  horiz-adv-x="1024" />

    
    <glyph glyph-name="act-o" unicode="&#59087;" d="M363.104343 336.745766c-44.065612 15.911388-86.120426 24.043602-125.114532 24.130583-48.350195 1.835811-88.568175-14.687514-117.421316-32.43676L120.568495 706.66891c1.486864 10.579963 5.858428 24.743544 9.967002 29.815049 22.12081 15.474436 66.536392 39.694047 127.476323 39.694047 16.524348 0 58.667168-10.403954 82.185814-17.136286 16.786315-6.29538 189.465143-69.946049 284.764626-69.946049 57.356312 0 139.80307 23.25668 220.677005 62.163805 0.699941 0.174985 1.224898 0.261966 1.573845 0.349971 0.437975-0.699941 0.961908-1.74883 1.310855-2.710738l2.885723-267.715321c0.174985-15.47546 12.765745-27.803229 28.241204-27.716248 15.474436 0.174985 27.802206 12.853749 27.716248 28.241204l-2.973728 273.748734-0.436952 2.360767c-0.873903 4.809539-6.470365 29.55206-28.765137 42.579771-9.880021 5.770424-26.40437 11.015891-49.049113 3.322675l-1.572822-0.523933-1.573845-0.699941c-73.005734-35.322483-148.984173-57.355289-198.033285-57.355289-87.956238 0-264.392646 66.010413-266.141476 66.710354l-1.048889 0.349971-1.048889 0.261966c-6.907317 2.097778-68.546166 19.672038-98.710163 19.672038l0 0c-78.426187 0-135.25652-32.349779-162.097842-51.584865l-1.486864-1.048889-1.310855-1.223874c-22.033829-20.546965-27.454282-59.017138-28.328185-66.536392l-0.174985-1.573845 0-745.354745c0-15.47546 12.502755-27.978215 27.978215-27.978215 15.476483 0 27.978215 12.502755 27.978215 27.978215L120.570541 258.667503c5.770424 5.335519 14.951527 12.94073 26.929326 20.635993 28.765137 18.272155 58.666144 26.840298 88.830141 25.616424l1.136893 0c32.612769 0 68.458161-6.995321 106.579387-20.807908 14.513552-5.246491 30.600949 2.27174 35.846416 16.786315C385.137149 315.411879 377.617895 331.41127100000006 363.104343 336.745766zM889.443933 283.850046l-43.716664 0c-4.02364 14.426571-9.705036 28.152177-16.874319 40.917922l30.863938 30.862915c5.683443 5.682419 5.683443 14.862499 0 20.545942l-49.837058 49.836035c-2.795673 2.797719-6.556323 4.196579-10.227945 4.196579-3.76065 0-7.432273-1.39886-10.229992-4.196579l-30.862915-30.862915c-12.766768 7.16826-26.492374 12.852726-40.918945 16.874319L717.640032 455.739904c0 7.956206-6.556323 14.514575-14.513552 14.514575l-70.468958 0c-7.956206 0-14.514575-6.557346-14.514575-14.514575l0-43.715641c-14.426571-4.021593-28.1532-9.705036-40.918945-16.874319l-30.861892 30.774911c-2.798742 2.798742-6.556323 4.197602-10.229992 4.197602-3.671623 0-7.432273-1.39886-10.229992-4.197602l-49.835012-49.835012c-5.595438-5.683443-5.595438-14.863523 0-20.546965l30.863938-30.863938c-7.169283-12.764722-12.852726-26.491351-16.874319-40.917922l-43.715641 0c-7.956206 0-14.514575-6.556323-14.514575-14.511505l0-70.471005c0-7.956206 6.557346-14.514575 14.514575-14.514575l43.715641 0c4.021593-14.425547 9.705036-28.154223 16.874319-40.916898l-30.950919-30.776957c-5.595438-5.682419-5.595438-14.862499 0-20.545942l49.836035-49.835012c2.796696-2.798742 6.557346-4.197602 10.228969-4.197602 3.672646 0 7.432273 1.397836 10.228969 4.197602l30.864962 30.861892c12.763698-7.16826 26.490328-12.851703 40.916898-16.873296l0-43.715641c0-7.955182 6.556323-14.514575 14.512529-14.514575l70.471005 0c7.954159 0 14.513552 6.558369 14.513552 14.514575l0 43.715641c14.425547 4.022617 28.154223 9.705036 40.917922 16.873296l30.862915-30.861892c2.797719-2.798742 6.557346-4.197602 10.228969-4.197602 3.76065 0 7.432273 1.397836 10.229992 4.197602l49.835012 49.835012c5.683443 5.683443 5.683443 14.863523 0 20.545942l-30.861892 30.862915c7.169283 12.766768 12.852726 26.493397 16.873296 40.918945l43.715641 0c7.956206 0 14.515598 6.557346 14.515598 14.514575L903.870504 269.33444699999995C903.956462 277.29269999999997 897.399115 283.850046 889.443933 283.850046zM791.868617 199.30346399999996c-2.796696-10.053983-6.731308-19.672038-11.714809-28.503171l-17.749246-31.387871-31.387871-17.749246c-8.831132-4.983501-18.359137-8.918114-28.503171-11.715833l-34.710546-9.617032-34.710546 9.704013c-10.053983 2.797719-19.671015 6.732331-28.503171 11.715833l-31.387871 17.749246-17.749246 31.387871c-4.982478 8.830109-8.91709 18.361183-11.715833 28.502148l-9.617032 34.624589 9.705036 34.709523c2.796696 10.055007 6.731308 19.672038 11.715833 28.503171l17.747199 31.387871 31.390941 17.749246c8.828063 4.982478 18.359137 8.91709 28.501124 11.713786l34.710546 9.706059 34.71157-9.706059c10.055007-2.796696 19.672038-6.731308 28.502148-11.713786l31.388894-17.749246 17.748223-31.387871c4.983501-8.832156 8.919137-18.36016 11.716856-28.503171l9.704013-34.709523L791.868617 199.30346399999996zM667.803997 322.582185c-48.875151 0-88.569198-39.60809-88.569198-88.569198 0-48.875151 39.60809-88.569198 88.569198-88.569198 48.874127 0 88.569198 39.606043 88.569198 88.569198C756.372172 282.97409600000003 716.765105 322.582185 667.803997 322.582185zM667.803997 201.48924599999998c-18.012236 0-32.611745 14.600533-32.611745 32.611745 0 18.010189 14.600533 32.610722 32.611745 32.610722 18.011212 0 32.612769-14.601556 32.612769-32.610722C700.416765 216.08977900000002 685.814186 201.48924599999998 667.803997 201.48924599999998z"  horiz-adv-x="1024" />

    
    <glyph glyph-name="resufe" unicode="&#58907;" d="M512 768c-212.0832 0-384-171.9296-384-384.0064C128 171.91679999999997 299.9168 0 512 0s384 171.9168 384 383.9936C896 596.0704000000001 724.0832 768 512 768L512 768zM512 63.993600000000015c-176.7296 0-320 143.2704-320 320C192 560.7296 335.2704 704 512 704c176.7232 0 320-143.2704 320-320.0064C832 207.264 688.7232 63.993600000000015 512 63.993600000000015L512 63.993600000000015zM640 448L383.9936 448C348.6528 448 320 419.3408 320 383.9936 320 348.65279999999996 348.6528 320 383.9936 320L640 320c35.3472 0 64 28.6528 64 63.9936C704 419.3408 675.3472 448 640 448L640 448zM640 448"  horiz-adv-x="1024" />

    
    <glyph glyph-name="contact" unicode="&#58932;" d="M692.044-11.990000000000009c-50.823 0-116.435 33.972-162.532 62.48-61.727 38.171-128.228 90.978-187.255 148.687l-0.215 0.21-18.74 18.813c-57.514 59.226-110.135 125.963-148.176 187.902-28.405 46.254-62.269 112.094-62.269 163.091 0 54.575 38.893 112.498 55.614 134.868 13.045 17.459 58.634 74.42 97.364 74.42 15.904 0 33.029-10.444 55.54-33.871 19.909-20.711 39.013-46.46 51.534-64.412 16.813-24.1 32.364-49.335 43.792-71.059 18.5-35.17 20.64-50.256 20.64-58.54 0-16.72-8.703-31.226-25.867-43.106-11.302-7.82-24.867-13.709-37.984-19.404-8.85-3.841-22.976-9.969-28.368-14.282 1.882-7.99 10.101-27.289 32.308-60.006 20.692-30.485 47.453-63.523 71.629-88.435 24.822-24.255 57.743-51.111 88.134-71.877 32.594-22.276 51.822-30.528 59.794-32.416 4.29 5.406 10.404 19.582 14.229 28.458 5.676 13.166 11.542 26.781 19.341 38.123 11.841 17.222 26.294 25.951 42.958 25.951 8.26 0 23.29-2.148 58.343-20.707 21.648-11.467 46.8-27.071 70.815-43.943 17.887-12.565 43.548-31.738 64.192-51.711 23.341-22.591 33.75-39.773 33.75-55.737 0-38.861-56.762-84.605-74.157-97.695-22.301-16.781-80.028-55.805-134.415-55.805l0 0 0 0zM374.821 232.5c56.627-55.348 120.22-105.871 179.098-142.274 57.077-35.298 107.423-55.545 138.125-55.545 27.35 0 66.337 16.762 104.302 44.829 16.64 12.31 31.785 26.015 42.649 38.593 10.191 11.809 13.917 19.51 14.864 22.62-3.941 8.492-27.335 35.039-81.934 72.833-21.419 14.825-43.562 28.45-62.351 38.365-23.594 12.445-33.428 14.594-35.676 14.949-0.876-0.603-3.444-2.758-7.351-9.329-4.373-7.358-8.575-17.107-12.64-26.537-5.001-11.61-10.177-23.61-16.525-33.298-10.322-15.751-22.995-23.746-37.668-23.754-0.262 0-0.542 0.004-0.826 0.015-7.137 0.151-28.875 0.613-87.887 40.941-32.578 22.272-67.961 51.146-94.629 77.251l-0.417 0.411c-26.009 26.773-54.782 62.269-76.975 94.956-40.195 59.216-40.662 81.028-40.812 88.197-0.32 14.99 7.566 27.926 23.423 38.467 9.698 6.441 21.76 11.677 33.423 16.742 9.396 4.076 19.109 8.292 26.441 12.676 6.547 3.915 8.703 6.498 9.297 7.376-0.353 2.258-2.494 12.125-14.898 35.802-9.878 18.849-23.459 41.074-38.228 62.563-37.668 54.795-64.124 78.265-72.583 82.22-3.101-0.954-10.775-4.693-22.542-14.918-12.539-10.893-26.197-26.098-38.457-42.797-27.974-38.087-44.674-77.213-44.674-104.658 0-30.805 20.172-81.322 55.346-138.599 36.286-59.081 86.631-122.894 141.787-179.715l18.318-18.382zM651.641 399.98c-8.117 0-15.308 5.839-16.764 14.139-4.172 23.738-17.871 44.363-38.573 58.077-20.997 13.905-46.66 19.069-72.271 14.538-9.275-1.643-18.113 4.573-19.747 13.875-1.634 9.302 4.556 18.176 13.826 19.815 34.23 6.058 68.669-0.932 96.97-19.68 28.601-18.942 47.554-47.595 53.37-80.686 1.634-9.302-4.557-18.176-13.827-19.814-1.003-0.177-1.998-0.263-2.982-0.263l0 0zM754.26 444.153c-8.113 0-15.308 5.837-16.764 14.133-8.094 46.068-34.623 86.057-74.694 112.599-40.369 26.736-89.652 36.674-138.77 27.984-9.275-1.639-18.11 4.573-19.747 13.875-1.634 9.302 4.556 18.176 13.826 19.814 57.739 10.215 115.793-1.543 163.468-33.125 47.972-31.771 79.754-79.787 89.491-135.207 1.634-9.302-4.556-18.176-13.827-19.814-1.004-0.173-1.998-0.258-2.982-0.258l0 0zM891.27 456.903c-8.117 0-15.311 5.839-16.767 14.139-13.811 78.614-59.043 146.832-127.355 192.074-68.609 45.438-152.318 62.337-235.706 47.584-9.27-1.639-18.11 4.573-19.743 13.875-1.634 9.302 4.556 18.176 13.826 19.814 92.006 16.281 184.489-2.443 260.404-52.721 76.208-50.473 126.693-126.719 142.15-214.686 1.634-9.302-4.56-18.176-13.83-19.814-0.999-0.178-1.995-0.267-2.98-0.267l0 0zM891.27 456.903z"  horiz-adv-x="1024" />

    
    <glyph glyph-name="share" unicode="&#58904;" d="M928 416c-17.664 0-32-14.336-32-32l0-320c0-17.664-14.336-32-32-32L160 32c-17.664 0-32 14.336-32 32L128 608c0 17.664 14.336 32 32 32l224 0 0 0c0 0 0 0 0 0 17.664 0 32 14.336 32 32s-14.336 32-32 32c-1.024 0-1.888-0.48-2.88-0.576L160.384 703.424c-52.96 0-95.904-43.008-95.904-96.064l0-543.872c0-53.056 42.944-96.064 95.904-96.064l704.224 0c52.96 0 95.904 43.008 95.904 96.064L960.512 384 960 384C960 401.664 945.664 416 928 416zM402.688 275.23199999999997c-1.92-4.128-3.168-8.608-3.168-13.44 0-17.664 14.336-32 32-32 15.456 0 27.744 11.168 30.752 25.76l0.64 0c37.12 189.696 193.984 336.256 388.672 358.272l-67.776-67.776c-12.512-12.512-12.512-32.768 0-45.248 12.512-12.512 32.768-12.512 45.248 0l122.528 122.528c12.512 12.512 12.512 32.768 0 45.248l-122.528 122.528c-12.512 12.512-32.768 12.512-45.248 0-12.512-12.512-12.512-32.768 0-45.248l67.52-67.52C628.256 656.1279999999999 448.224 490.592 402.688 275.23199999999997z"  horiz-adv-x="1024" />

    
    <glyph glyph-name="bookmark" unicode="&#58905;" d="M256 896 1024 896 1024-128 640 256 256-128Z"  horiz-adv-x="1280" />

    
    <glyph glyph-name="edit-one" unicode="&#58908;" d="M323.608576 237.27411199999995L366.068736 194.696192 468.333568 231.99539200000004 360.828928 339.380224ZM513.3056 832.68096c-248.041472 0-449.069056-201.05216-449.069056-449.072128 0-247.994368 201.028608-449.069056 449.069056-449.069056 247.994368 0 449.07008 201.074688 449.07008 449.069056C962.37568 631.6288 761.299968 832.68096 513.3056 832.68096zM490.842112 209.48889599999995l-0.239616 0.279552c-1.241088-1.040384-2.60096-1.999872-4.200448-2.56l-206.849024-75.480064c-5.398528-1.918976-11.474944-0.638976-15.471616 3.519488-4.07552 3.997696-5.397504 10.075136-3.398656 15.429632l75.399168 206.773248c0.562176 1.557504 1.440768 2.878464 2.51904 4.158464l-0.161792 0.198656L524.184576 547.5092480000001c20.150272-20.108288 36.739072-36.658176 36.739072-36.658176l-145.522688-145.28512c-2.358272-2.279424-3.398656-5.276672-3.398656-8.31488 0-2.998272 1.040384-5.998592 3.398656-8.316928 2.280448-2.23744 5.27872-3.477504 8.395776-3.477504 3.117056 0 6.07744 1.240064 8.353792 3.477504L577.596416 494.138368l45.693952-45.617152L478.487552 303.87712c-4.557824-4.595712-4.557824-12.071936 0-16.668672 2.238464-2.200576 5.27872-3.438592 8.3968-3.438592 3.15904 0 6.115328 1.238016 8.354816 3.398656 0 0.039936 144.763904 144.643072 144.763904 144.643072s21.269504-21.269504 36.54144-36.620288L490.842112 209.48889599999995zM751.264768 469.79072l-57.969664-57.929728c-29.78304 29.744128-98.985984 98.99008-152.357888 152.260608l58.047488 58.008576c20.789248 20.769792 54.771712 20.809728 75.522048 0l76.75904-76.8C772.054016 524.561408 772.015104 490.65984 751.264768 469.79072z"  horiz-adv-x="1024" />

    
    <glyph glyph-name="help-manual" unicode="&#58951;" d="M661.807934 330.69597999999996l-1.069355 14.042831c-3.260254 29.15297 6.485715 61.007469 33.55114 93.41353 24.348548 28.610618 37.880749 49.666166 37.880749 73.966619 0 27.535123-17.318434 45.898353-51.41295 46.439682-19.47454 0-41.141002-6.479575-54.655807-16.736173l-12.988826 34.014698c17.844413 12.95915 48.696072 21.597901 77.391624 21.597901 62.228273 0 90.38045-38.334073 90.38045-79.378885 0-36.70804-20.561291-63.167668-46.539966-93.946672-23.822568-28.077475-32.481785-51.835575-30.851659-79.370699l0.543376-14.042831L661.807934 330.69597999999996zM649.90586 255.102305c0 19.980054 13.532201 34.014698 32.481785 34.014698 18.931165 0 31.921014-14.034645 31.921014-34.014698 0-18.896372-12.44545-33.472346-32.464389-33.472346C662.894685 221.62995899999999 649.90586 236.206956 649.90586 255.102305zM394.163221 545.7345680000001c-1.77032 0-3.576455 0.261966-5.354961 0.813528-0.552585 0.174985-55.462173 17.10354-102.353133 17.10354-46.899146 0-101.809757-16.928554-102.362342-17.10354-9.482979-2.937912-19.535939 2.316765-22.481014 11.751648-2.962471 9.434883 2.305509 19.481703 11.761881 22.437012 2.453888 0.760317 60.607356 18.729573 113.081475 18.729573 52.464909 0 110.618377-17.969257 113.072265-18.729573 9.457396-2.955308 14.724353-13.002129 11.761881-22.437012C408.896784 550.640298 401.806295 545.7345680000001 394.163221 545.7345680000001zM394.163221 384.562818c-1.77032 0-3.576455 0.261966-5.354961 0.813528-0.552585 0.174985-55.462173 17.10354-102.353133 17.10354-46.899146 0-101.809757-16.928554-102.362342-17.10354-9.482979-2.90312-19.535939 2.325975-22.481014 11.751648-2.962471 9.434883 2.305509 19.481703 11.761881 22.437012 2.453888 0.760317 60.607356 18.729573 113.081475 18.729573 52.464909 0 110.618377-17.969257 113.072265-18.729573 9.457396-2.955308 14.724353-13.002129 11.761881-22.437012C408.896784 389.468548 401.806295 384.562818 394.163221 384.562818zM394.163221 223.39106900000002c-1.77032 0-3.576455 0.261966-5.354961 0.813528-0.552585 0.174985-55.462173 17.10354-102.353133 17.10354-46.899146 0-101.809757-16.928554-102.362342-17.10354-9.482979-2.911306-19.535939 2.316765-22.481014 11.751648-2.962471 9.434883 2.305509 19.481703 11.761881 22.437012 2.453888 0.760317 60.607356 18.729573 113.081475 18.729573 52.464909 0 110.618377-17.969257 113.072265-18.729573 9.457396-2.955308 14.724353-13.002129 11.761881-22.437012C408.896784 228.29679899999996 401.806295 223.39106900000002 394.163221 223.39106900000002zM496.454956 36.88737400000002c-18.808368 0-37.652552 3.690042-55.997362 11.070126-51.185776 20.583804-100.066043 30.595832-149.419078 30.595832-109.952204 0-190.56008-33.393551-191.366446-33.726126-8.300037-3.488451-17.485233-2.614547-25.00551 2.360767-7.520277 4.975315-11.700483 13.378705-11.700483 22.384823L62.966077 705.305867c0 10.729365 6.055926 20.435425 15.943111 24.676006 3.611248 1.547239 89.832981 38.028105 212.879412 38.028105 74.419943 0 131.120316-19.437701 167.370939-34.0587 23.112394-9.321296 49.468668-9.636474 72.335469-0.865717 33.927717 13.037944 102.594633 34.924417 181.388187 34.924417 122.152061 0 224.49803-35.868929 228.802056-37.389562 10.736529-3.812839 17.697057-13.94664 17.697057-25.314549l0-635.733069c0-8.700149-4.034896-16.84976-11.134595-21.895683-7.134491-5.036713-16.168238-6.321986-24.362874-3.462868-0.99056 0.340761-100.086509 34.338063-210.494085 34.338063-73.359798 0-139.262764-22.219047-164.197666-31.767518C531.953448 40.18344400000001 514.229784 36.88737400000002 496.454956 36.88737400000002zM291.062052 132.27690800000005c55.602366 0 112.64043-11.603269 169.548534-34.495652 22.832008-9.181103 46.77942-9.478885 69.313645-0.839111 27.739784 10.623965 101.270475 35.334763 183.640484 35.334763 79.065753 0 151.674445-15.581883 192.606693-26.634614L906.171408 685.6061990000001c-33.769105 9.723455-109.109 28.681226-193.187931 28.681226-70.082148 0-131.669832-19.630083-162.109098-31.338752-35.479049-13.605879-76.299757-13.168927-111.963001 1.198292-32.069393 12.941753-82.22163 30.141484-147.254785 30.141484-82.335217 0-145.80169-17.986653-175.47757-27.65792l0-579.491137C151.993716 118.164492 215.897142 132.27690800000005 291.062052 132.27690800000005zM511.174192 149.66083400000002c-9.912767 0-18.419512 8.018627-18.419512 17.907858L492.75468 597.360366c0 9.889231 8.506744 17.907858 18.419512 17.907858s18.419512-8.018627 18.419512-17.907858l0-429.791673C529.593703 157.67843800000003 521.086959 149.66083400000002 511.174192 149.66083400000002z"  horiz-adv-x="1024" />

    
    <glyph glyph-name="start-up" unicode="&#59005;" d="M512.010333 864.527804C237.923849 864.527804 15.728197 642.332152 15.728197 368.26390200000003S237.923849-128 512.010333-128c274.085269 0 496.262686 222.195652 496.262686 496.263902S786.095601 864.527804 512.010333 864.527804L512.010333 864.527804zM475.879911 645.874445c0 20.621643 16.723175 37.344818 37.346034 37.344818 20.621643 0 37.344818-16.723175 37.344818-37.344818l0-130.588342c0-20.621643-16.723175-37.344818-37.344818-37.344818-20.622859 0-37.346034 16.723175-37.346034 37.344818L475.879911 645.874445 475.879911 645.874445zM513.225945 84.87920099999997c-150.033273 0-271.679572 121.628065-271.679572 271.679572 0 124.13952 83.350873 228.60679 197.093263 261.051476l0-66.523155c-78.257458-30.03899-133.925197-105.696254-133.925197-194.529537 0-115.16344 93.346851-208.510291 208.511507-208.510291 115.16344 0 208.528525 93.346851 208.528525 208.510291 0 88.833283-55.667739 164.508781-133.925197 194.546555l0 66.523155c113.724156-32.444686 197.093263-136.91074 197.093263-261.051476C784.904301 206.52550099999996 663.276236 84.87920099999997 513.225945 84.87920099999997L513.225945 84.87920099999997z"  horiz-adv-x="1024" />

    
    <glyph glyph-name="icondown" unicode="&#59039;" d="M697.359638 206.930165l-166.241208-170.145122c-5.335519-5.459339-11.773138-8.191566-19.316951-8.191566-7.54279 0-13.982456 2.732228-19.315928 8.191566l-166.241208 170.145122c-8.002254 8.18645-10.251481 19.718087-5.92085 30.417777 4.329609 10.697643 13.921058 17.203824 25.234731 17.203824l134.206608 0 0 452.229708c0 17.838274 14.397918 32.296567 32.236192 32.296567 17.833157 0 32.232099-14.458293 32.232099-32.296567l0-452.229708L678.04371 254.551766c11.31572 0 20.908192-6.506181 25.236777-17.203824C707.610096 226.648252 705.358823 215.116615 697.359638 206.930165z"  horiz-adv-x="1024" />

    
    <glyph glyph-name="iconup" unicode="&#59040;" d="M703.280488 530.488329c-4.329609-10.697643-13.921058-17.040095-25.236777-17.040095L544.234145 513.448234 544.234145 60.890045c0-17.838274-14.398942-32.296567-32.232099-32.296567-17.838274 0-32.236192 14.458293-32.236192 32.296567L479.765855 513.448234l-134.206608 0c-11.314697 0-20.906146 6.342452-25.234731 17.040095-4.330632 10.69969-2.081405 22.148439 5.92085 30.334889l166.241208 170.104189c5.333472 5.459339 11.773138 8.1711 19.315928 8.1711 7.543813 0 13.982456-2.742461 19.316951-8.201799l166.241208-170.068374C705.358823 552.641885 707.610096 541.186995 703.280488 530.488329z"  horiz-adv-x="1024" />

    
    <glyph glyph-name="hollow-playing" unicode="&#58978;" d="M909.892465 564.218269c-21.798121 51.476314-52.909055 97.631021-92.514092 137.236058-39.605037 39.605037-85.862083 70.818309-137.236058 92.514092-53.21607 22.514491-109.809314 33.976414-168.142315 33.976414S397.176094 816.585249 343.857685 793.968419c-51.476314-21.798121-97.631021-52.909055-137.236058-92.514092s-70.818309-85.862083-92.514092-137.236058c-22.514491-53.21607-33.976414-109.809314-33.976414-168.142315s11.461923-114.823906 33.976414-168.142315c21.798121-51.476314 52.909055-97.631021 92.514092-137.236058 39.605037-39.605037 85.862083-70.818309 137.236058-92.514092 53.21607-22.514491 109.809314-33.976414 168.142315-33.976414s114.823906 11.461923 168.142315 33.976414c51.476314 21.798121 97.631021 52.909055 137.236058 92.514092 39.605037 39.605037 70.818309 85.862083 92.514092 137.236058 22.514491 53.21607 33.976414 109.809314 33.976414 168.142315S932.509294 510.89986 909.892465 564.218269zM512 9.236057999999957c-213.273636 0-386.839896 173.56626-386.839896 386.839896s173.56626 386.839896 386.839896 386.839896 386.839896-173.56626 386.839896-386.839896S725.273636 9.236057999999957 512 9.236057999999957zM641.355986 399.760144L458.681591 528.1950830000001c-8.391765 5.8333-19.649011-0.102339-19.649011-10.336198l0-256.869878c0-10.23386 11.257246-16.169498 19.649011-10.336198l182.776734 128.434939C648.622027 384.102339 648.519688 394.745553 641.355986 399.760144z"  horiz-adv-x="1024" />

    
    <glyph glyph-name="hollow-user" unicode="&#58914;" d="M512-359.489906M905.184889 561.8644810000001c-21.491105 50.862283-52.295023 96.505297-91.490706 135.598641-39.195683 39.195683-84.838697 69.9996-135.598641 91.490706-52.602039 22.309814-108.478913 33.56706-166.095543 33.56706s-113.493504-11.257246-166.095543-33.56706c-50.862283-21.491105-96.505297-52.295023-135.598641-91.490706s-69.9996-84.838697-91.490706-135.598641c-22.309814-52.602039-33.56706-108.478913-33.56706-166.095543s11.257246-113.493504 33.56706-166.095543c21.491105-50.862283 52.295023-96.505297 91.490706-135.598641 39.195683-39.195683 84.838697-69.9996 135.598641-91.490706 52.602039-22.309814 108.478913-33.56706 166.095543-33.56706s113.493504 11.257246 166.095543 33.56706c50.862283 21.491105 96.505297 52.295023 135.598641 91.490706 39.195683 39.195683 69.9996 84.838697 91.490706 135.598641 22.309814 52.602039 33.56706 108.478913 33.56706 166.095543S927.494703 509.262443 905.184889 561.8644810000001zM512 14.045972000000006c-91.081351 0-174.794323 32.031981-240.393364 85.452728 2.967819 130.072357 109.706976 234.86708 240.393364 234.86708s237.425545-104.897062 240.393364-234.86708C686.794323 46.07795299999998 603.081351 14.045972000000006 512 14.045972000000006zM404.544473 474.569658c0 59.254048 48.201479 107.455527 107.455527 107.455527 59.254048 0 107.455527-48.201479 107.455527-107.455527 0-59.254048-48.201479-107.455527-107.455527-107.455527C452.745952 367.11413200000004 404.544473 415.315611 404.544473 474.569658zM781.355187 125.492704c-6.959025 60.482111-33.874076 116.358985-77.572656 160.057565-34.181091 34.181091-75.8329 58.025984-121.168899 70.204277 40.423746 24.151909 67.645813 68.362183 67.645813 118.712772 0 76.139916-62.01719 138.157106-138.157106 138.157106-76.139916 0-138.157106-62.01719-138.157106-138.157106 0-50.452928 27.119728-94.663202 67.645813-118.712772-45.438337-12.178293-87.090146-36.023186-121.168899-70.204277-43.698581-43.698581-70.613632-99.677793-77.572656-160.057565-69.385569 69.180891-112.367779 164.765141-112.367779 270.173896 0 210.510494 171.212473 381.722966 381.722966 381.722966 210.510494 0 381.722966-171.212473 381.722966-381.722966C893.722966 290.257845 850.740756 194.67359599999997 781.355187 125.492704z"  horiz-adv-x="1024" />

    
    <glyph glyph-name="solid-user" unicode="&#58989;" d="M507.015168 799.742976c-231.662592 0-419.46112-187.798528-419.46112-419.46112s187.798528-419.462144 419.46112-419.462144c231.661568 0 419.463168 187.798528 419.463168 419.462144S738.676736 799.742976 507.015168 799.742976zM386.003968 519.001088c0 2.617344 0 12.865536 0 15.48288 0 64.510976 54.573056 116.790272 121.894912 116.790272 67.308544 0 121.8816-52.279296 121.8816-116.790272 0-2.61632 0-12.865536 0-15.48288 0-1.839104 0-9.186304 0-11.090944 0-67.20512-54.573056-167.035904-121.8816-167.035904-67.32288 0-121.894912 99.82976-121.894912 167.035904C386.003968 509.814784 386.003968 517.1619840000001 386.003968 519.001088zM563.987456 168.66406400000005L453.157888 168.66406400000005 266.584064 168.66406400000005c0 0 0.557056 81.283072 38.144 114.451456 33.232896 29.334528 100.10112 60.352512 115.14368 67.140608 22.1952-23.190528 53.38112-37.715968 88.027136-37.715968 34.839552 0 66.194432 14.70464 88.414208 38.157312 12.608512-5.661696 82.002944-37.48352 116.104192-67.581952 37.587968-33.168384 38.144-114.451456 38.144-114.451456L563.987456 168.66406400000005z"  horiz-adv-x="1024" />

    
    <glyph glyph-name="hollow-setting" unicode="&#59023;" d="M508.669 472.582l-70.867-42.519v-85.04l35.433-28.346 35.433-21.26 42.519 21.26 35.433 28.346v85.04l-35.433 21.26-42.519 21.26zM508.669 522.188l-56.693-28.346-63.78-35.433v-141.732l63.78-35.433 56.693-35.433 63.78 35.433 56.693 35.433v141.732l-56.693 35.433-63.78 28.346zM508.669 578.8820000000001l170.078-99.213v-191.339l-170.078-99.213-77.953 49.606-85.04 49.606v191.339l85.04 49.606 77.953 49.606zM118.905 451.323l70.867 14.173 42.519 77.953-42.519 70.867 92.126 99.213 70.867-49.606 70.867 42.519 21.26 77.953h134.646l14.173-77.953 70.867-42.519 77.953 49.606 92.126-99.213-42.519-70.867 42.519-77.953 70.867-14.173v-127.559l-77.953-28.346-35.433-70.867 49.606-70.867-92.126-92.126-70.867 42.519-77.953-35.433-14.173-77.953h-148.819l-14.173 77.953-77.953 35.433-70.867-42.519-92.126 92.126 42.519 70.867-28.346 70.867-85.04 28.346 7.087 127.559zM955.126 458.409c0 21.26-14.173 42.519-35.433 42.519l-56.693 7.087-14.173 35.433 35.433 49.606c7.087 21.26 7.087 42.519-7.087 49.606l-106.299 106.299c-7.087 14.173-28.346 21.26-49.606 7.087l-56.692-35.433-21.26 21.26-14.173 56.692c-7.087 21.26-21.26 35.433-42.519 35.433h-148.819c-21.26 0-35.433-14.173-42.519-35.433l-14.173-56.692-28.346-21.26-56.692 35.433c-14.173 14.173-35.433 7.087-49.606-7.087l-99.213-106.299c-14.173-7.087-14.173-28.346-7.087-49.606l35.433-49.606-21.26-35.433-56.692-7.087c-21.26 0-35.433-21.26-35.433-42.519v-141.732c0-14.173 7.087-35.433 28.346-35.433l70.867-28.346 7.087-21.26-35.433-56.692c-14.173-14.173-7.087-42.519 7.087-49.606l106.299-106.299c14.173-14.173 35.433-14.173 49.606-7.087l49.606 35.433 28.346-14.173 14.173-63.78c0-21.26 21.26-35.433 42.519-35.433h162.992c21.26 0 35.433 14.173 42.519 35.433l7.087 63.78 28.346 14.173 49.606-35.433c21.26-7.087 42.519-7.087 56.692 7.087l106.299 106.299c14.173 7.087 14.173 35.433 7.087 49.606l-35.433 56.692 7.087 21.26 70.867 28.346c14.173 0 28.346 21.26 28.346 35.433l-7.087 141.732z"  horiz-adv-x="1025" />

    
    <glyph glyph-name="group" unicode="&#58903;" d="M1000.672 111.904c-10.592-14.912-28.96-7.104-52.8-7.104-4.48 0-18.624-0.224-20.768 0l-145.28 0c0 125.056-82.016 261.312-177.248 286.144 25.248 15.616 55.488 26.528 92.32 30.912-52.064 16.704-92.64 59.232-108.032 112.576-21.536-69.184-74.56-124.224-142.048-147.52 176.864-33.792 240.736-162.848 279.648-309.792 9.056-34.336 15.68-81.216-4.416-109.504-14.496-20.352-32.16-28.832-64.736-28.832 0 0-0.192-2.176-20.768 0l-529.312-2.08c-8.928-0.48-51.712-1.728-77.248 30.88-24.672 31.488-13.024 90.272-12.864 90.848 34.016 157.984 90.56 305.632 273.088 332.512-86.144 33.6-151.712 115.84-151.712 211.904 0 125.792 112.352 228.16 236.224 228.16 109.056 0 200.16-79.36 220.416-184.16 25.184 59.552 83.456 101.376 151.2 101.376 90.72 0 164.512-74.912 164.512-167.04 0-76.8-51.36-141.472-120.928-160.928 139.488-20.288 184.416-116.736 213.92-228.16 6.624-25.152 11.456-59.456-3.232-80.16zM259.04 24.063999999999965l24.544 0 0 19.104 71.456 0 0-17.984 24.576 0 0 107.904-120.576 0 0-109.024zM388.544 255.61599999999999l-58.048 0 7.808 3.392c-4.48 11.232-7.808 18.336-10.048 21.376-2.24 5.248-3.712 8.96-4.48 11.232l-25.664-5.6c0.736-2.24 2.24-5.632 4.48-10.144 3.712-8.224 6.688-14.976 8.928-20.224l-61.408 0 0-20.224 138.432 0 0 20.224zM262.4 220.76800000000003c1.472-3.008 4.096-7.136 7.808-12.352 6.688-10.496 11.904-18.752 15.648-24.736l21.216 11.232c-4.48 6.752-10.4 15.36-17.856 25.856-3.712 4.48-6.336 7.872-7.808 10.112l-18.976-10.112zM395.232 182.55999999999995l-42.4 0 22.336 40.448-22.336 7.872c-8.192-15.008-16.736-31.104-25.664-48.32l-84.832 0 0-21.376 152.928 0 0 21.376zM408.64 21.79200000000003l23.456 0 0 229.312 49.12 0-27.904-79.808c22.336-21.728 33.504-43.072 33.504-64.096 0.736-17.984-6.336-26.592-21.216-25.824-8.928 0-17.472 0.352-25.664 1.12 0.736-3.008 1.856-7.488 3.36-13.472 0.736-6.016 1.504-10.496 2.24-13.504 13.408 0 22.688 0.352 27.904 1.12 25.312 2.24 37.952 18.336 37.952 48.32 0.736 24.736-10.432 47.968-33.504 69.696l27.904 75.328 0 24.736-97.12 0 0-252.928zM283.616 111.71199999999999l71.456 0 0-49.44-71.456 0 0 49.44z"  horiz-adv-x="1024" />

    
    <glyph glyph-name="hollow-report" unicode="&#59019;" d="M512 640c-21.942857 0-36.571429-14.628571-36.571429-36.571429L475.428571 310.85714299999995c0-21.942857 14.628571-36.571429 36.571429-36.571429S548.571429 288.91428599999995 548.571429 310.85714299999995L548.571429 596.114286C548.571429 618.057143 533.942857 640 512 640zM512 171.885714m-36.571429 0a0.5 0.5 0 1 1 73.142857 0 0.5 0.5 0 1 1-73.142857 0ZM519.314286 896L504.685714 896C226.742857 896 0 669.257143 0 391.314286l0-14.628571C0 98.74285699999996 226.742857-128 504.685714-128l14.628571 0c277.942857 0 504.685714 226.742857 504.685714 504.685714L1024 391.314286C1024 669.257143 797.257143 896 519.314286 896zM958.171429 376.68571399999996c0-241.371429-197.485714-438.857143-438.857143-438.857143L504.685714-62.17142899999999c-241.371429 0-438.857143 197.485714-438.857143 438.857143L65.828571 391.314286c0 241.371429 197.485714 438.857143 438.857143 438.857143l14.628571 0c241.371429 0 438.857143-197.485714 438.857143-438.857143L958.171429 376.68571399999996z"  horiz-adv-x="1024" />

    
    <glyph glyph-name="edit-two" unicode="&#58957;" d="M892.69907 26.271596000000045L131.299907 26.271596000000045c-12.69923 0-22.995737-10.289344-22.995737-22.984481 0-12.69309 10.296507-22.982434 22.995737-22.982434l761.399163 0c12.701277 0 22.99676 10.289344 22.99676 22.982434C915.694807 15.982252000000017 905.400347 26.271596000000045 892.69907 26.271596000000045zM174.345282 135.165702c0.042979-1.87879 0.318248-3.717671 0.798179-5.481851 0-0.004093 0.002047-0.00614 0.00307-0.010233 0.166799-0.611937 0.36225-1.213641 0.577145-1.805112 0.032746-0.092098 0.064468-0.184195 0.099261-0.274246 0.196475-0.523933 0.413416-1.035586 0.647753-1.539053 0.069585-0.148379 0.140193-0.297782 0.212848-0.446162 0.225127-0.459464 0.462534-0.909719 0.716314-1.350764 0.095167-0.165776 0.194428-0.327458 0.293689-0.490164 0.260943-0.427742 0.531096-0.851391 0.819668-1.260713 0.095167-0.134053 0.194428-0.264013 0.291642-0.396019 0.278339-0.379647 0.568958-0.751107 0.870834-1.115404 0.077771-0.094144 0.151449-0.188288 0.232291-0.277316 0.36225-0.421602 0.743944-0.827855 1.13587-1.220804 0.063445-0.063445 0.127913-0.132006 0.192382-0.195451 0.422625-0.415462 0.864694-0.811482 1.321088-1.195222 0.045025-0.037862 0.091074-0.075725 0.137123-0.113587 0.479931-0.398066 0.975211-0.775666 1.487887-1.1328 0.00921-0.00614 0.020466-0.014326 0.028653-0.020466 1.051959-0.731664 2.170432-1.379417 3.350304-1.935072 0.021489-0.010233 0.042979-0.020466 0.064468-0.029676 0.534166-0.24764 1.083681-0.475837 1.641383-0.683569 0.109494-0.041956 0.221034-0.081864 0.332575-0.121773 0.51063-0.182149 1.029446-0.349971 1.558495-0.497327 0.164752-0.046049 0.332575-0.083911 0.49835-0.125867 0.405229-0.102331 0.813528-0.193405 1.228991-0.276293 1.439792-0.283456 2.917446-0.448208 4.419659-0.448208 0.00921 0 0.01842 0.002047 0.026606 0.002047 0.008186 0 0.01842-0.002047 0.025583-0.002047 1.416256 0 2.811022 0.138146 4.172019 0.38988l62.383816 10.972912c12.506848 2.198062 20.863167 14.116509 18.661012 26.618241-2.201132 12.503778-14.119579 20.85805-26.632567 18.653849l-30.27656-5.324262 10.868535 61.734016 98.405217-98.355075L823.468312 615.695966l-0.004093 0.004093 10.477632 10.473539c20.919449 20.910239 20.919449 54.9321 0 75.842339l-70.03303 69.999261c-20.920472 20.907169-54.958706 20.905122-75.881225-0.001023l-26.737968-26.725688c-0.025583-0.026606-0.049119-0.056282-0.074701-0.083911L205.389322 289.60204999999996c-0.021489-0.021489-0.042979-0.039909-0.063445-0.062422-0.019443-0.01842-0.036839-0.039909-0.056282-0.060375l-1.155313-1.155313 0.01842-0.065492c-2.62171-3.036149-4.484128-6.792707-5.229095-11.027148l-24.166399-137.261177c-0.228197-1.213641-0.36225-2.453888-0.390903-3.713578-0.004093-0.182149-0.001023-0.363274-0.001023-0.545422S174.341189 135.34785 174.345282 135.165702zM731.390197 739.511923l70.032006-69.999261c2.988054-2.987031 2.988054-7.847735 0-10.835789l-10.477632-10.472516-80.873935 80.83198 10.477632 10.473539C723.538369 742.49793 728.402143 742.496907 731.390197 739.511923zM677.556105 696.528969l80.872912-80.834027L334.94398 192.41866000000005l-80.872912 80.830957L677.556105 696.528969z"  horiz-adv-x="1024" />

    
    <glyph glyph-name="hollow-look" unicode="&#59018;" d="M928.842245 383.90892599999995c0 5.006014-0.846274 9.193383-1.086751 9.691733-0.182149 2.480494-1.028423 7.001461-1.815345 9.374508-0.210801 0.590448-0.484024 1.209548-0.724501 1.799996-0.424672 1.360997-0.876973 2.691295-1.390673 3.749394-76.871785 168.137395-242.376213 281.144168-411.782507 281.144168-169.375595 0-334.865697-112.902396-411.388535-280.130072-0.921999-1.815345-1.572822-3.553942-1.981121-5.066389-0.181125-0.49835-0.39295-0.967024-0.558725-1.406023-1.512447-4.430916-1.542122-7.514137-1.421372-6.712889-0.710175-3.251044-1.360997-9.722432-1.360997-9.722432-0.181125-1.949398-0.181125-3.50687 0.030699-5.442966 0 0 0.649799-5.65479 0.968048-6.80294 0.090051-1.602498 0.483001-3.931542 0.951675-6.048763l-0.030699 0c0.408299-1.814322 0.968048-3.568269 1.738597-5.291516 0.393973-1.330298 0.862647-2.570545 1.270946-3.507894 76.976162-168.166047 242.436588-281.20352 411.781484-281.20352 169.436994 0 334.941422 112.945375 410.936233 279.328823 1.177825 2.177596 1.935072 4.233418 2.448772 6.018064 0.2415 0.543376 0.454348 1.027399 0.604774 1.511423 1.331321 3.872191 1.602498 7.227612 1.481747 7.227612l-0.028653-0.029676C928.027693 375.07881699999996 928.842245 379.10041 928.842245 383.90892599999995zM872.717993 381.85310400000003c-0.029676-0.121773-0.091074-0.272199-0.151449-0.393973-0.090051-0.36225-0.240477-0.785899-0.332575-1.209548-68.403926-147.420561-212.830293-246.337431-360.191502-246.337431-146.997935 0-291.168476 98.642624-360.252901 246.578931-0.166799 0.5137-0.287549 0.998747-0.468674 1.481747-0.030699 0.484024-0.12075 0.876973-0.150426 1.150196-0.060375 0.300852-0.12075 0.724501-0.166799 1.088798l0 0.3776c0.166799 0.620124 0.286526 1.239224 0.347924 1.919722 0.12075 0.36225 0.211824 0.710175 0.347924 1.103124C220.132094 535.10958 364.680235 634.0714760000001 512.041444 634.0714760000001c147.420561 0 291.940049-99.051947 360.161826-246.322082 0.060375-0.287549 0.121773-0.530073 0.212848-0.726547 0.060375-0.2415 0.119727-0.484024 0.240477-0.740874 0.151449-1.104147 0.272199-2.192945 0.423649-2.736321C872.899118 382.971577 872.809067 382.427178 872.717993 381.85310400000003zM512.041444 522.939399c-76.598562 0-138.954749-62.325487-138.954749-138.939399 0-76.598562 62.356187-138.954749 138.954749-138.954749 76.598562 0 138.954749 62.356187 138.954749 138.954749C650.996193 460.613912 588.640006 522.939399 512.041444 522.939399zM512.041444 300.627151c-45.935192 0-83.371826 37.406958-83.371826 83.371826 0 45.950542 37.436634 83.356476 83.371826 83.356476 45.964868 0 83.373873-37.406958 83.373873-83.356476C595.414293 338.03410899999994 558.006312 300.627151 512.041444 300.627151z"  horiz-adv-x="1024" />

    
    <glyph glyph-name="play-one" unicode="&#59072;" d="M512 768c51.9 0 102.2-10.1 149.5-30.2 45.7-19.3 86.8-47 122.1-82.3 35.3-35.3 63-76.4 82.3-122.1 20-47.3 30.2-97.6 30.2-149.5s-10.1-102.2-30.2-149.5c-19.3-45.7-47-86.8-82.3-122.1-35.3-35.3-76.4-63-122.1-82.3-47.3-20-97.6-30.2-149.5-30.2s-102.2 10.1-149.5 30.2c-45.7 19.3-86.8 47-122.1 82.3s-63 76.4-82.3 122.1c-20 47.3-30.2 97.6-30.2 149.5s10.1 102.2 30.2 149.5c19.3 45.7 47 86.8 82.3 122.1s76.4 63 122.1 82.3C409.8 757.9 460.1 768 512 768M512 832C264.6 832 64 631.4 64 384s200.6-448 448-448 448 200.6 448 448S759.4 832 512 832L512 832zM431 579.7l291-168c21.3-12.3 21.3-43.1 0-55.4l-291-168c-21.3-12.3-48 3.1-48 27.7L383 552C383 576.6 409.7 592 431 579.7z"  horiz-adv-x="1024" />

    
    <glyph glyph-name="pack-up" unicode="&#59156;" d="M512 640L0 128 1024 128Z"  horiz-adv-x="1024" />

    
    <glyph glyph-name="bookmark-o" unicode="&#58953;" d="M770.867497 749.714286H185.72464v-709.714286l241.714286 232 50.857143 48.571429 50.857142-48.571429 241.714286-232V749.714286z m6.857143 73.142857q13.142857 0 25.142857-5.142857 18.857143-7.428571 30-23.428572t11.142857-35.428571v-736.571429q0-19.428571-11.142857-35.428571t-30-23.428572q-10.857143-4.571429-25.142857-4.571428-27.428571 0-47.428571 18.285714l-252 242.285714-252-242.285714q-20.571429-18.857143-47.428572-18.857143-13.142857 0-25.142857 5.142857-18.857143 7.428571-30 23.428572T112.581783 22.285714V758.857143q0 19.428571 11.142857 35.428571T153.72464 817.714286q12 5.142857 25.142857 5.142857h598.857143z"  horiz-adv-x="1024" />

    
    <glyph glyph-name="database" unicode="&#58982;" d="M510.084723 457.142857q135.428571 0 253.142857 24.571429t185.714286 72.571428v-97.142857q0-39.428571-58.857143-73.142857t-160-53.428571-220-19.714286-220 19.714286T130.084723 384 71.22758 457.142857V554.285714q68-48 185.714286-72.571428t253.142857-24.571429z m0-438.857143q135.428571 0 253.142857 24.571429t185.714286 72.571428v-97.142857q0-39.428571-58.857143-73.142857t-160-53.428571-220-19.714286-220 19.714286-160 53.428571T71.22758 18.285714v97.142857q68-48 185.714286-72.571428t253.142857-24.571429z m0 219.428572q135.428571 0 253.142857 24.571428t185.714286 72.571429v-97.142857q0-39.428571-58.857143-73.142857t-160-53.428572-220-19.714286-220 19.714286-160 53.428572T71.22758 237.714286V334.857143q68-48 185.714286-72.571429t253.142857-24.571428zM510.084723 896q118.857143 0 220-19.714286t160-53.428571 58.857143-73.142857v-73.142857q0-39.428571-58.857143-73.142858t-160-53.428571T510.084723 530.285714t-220 19.714286T130.084723 603.428571 71.22758 676.571429V749.714286q0 39.428571 58.857143 73.142857t160 53.428571T510.084723 896z"  horiz-adv-x="1024" />

    
    <glyph glyph-name="plus" unicode="&#58948;" d="M880.15737 448.280872H575.934072V752.5041699999999c0 35.915501-29.109546 65.025048-65.025048 65.025048s-65.025048-29.109546-65.025047-65.025048v-304.223298H141.660679a65.025048 65.025048 0 0 1 0-130.050095h304.223298v-304.223298c0-35.915501 29.109546-65.025048 65.025047-65.025048s65.025048 29.109546 65.025048 65.025048V318.230777h304.216073a65.025048 65.025048 0 0 1 65.025047 65.025047 65.010598 65.010598 0 0 1-65.017822 65.025048z"  horiz-adv-x="1024" />

    
    <glyph glyph-name="review-status" unicode="&#59041;" d="M321.163636 328.14545499999997l-18.618181-9.309091-18.618182 32.581818-195.490909-111.709091 18.618181-32.581818-18.618181-9.309091-27.927273 51.2 107.054545 60.509091c-9.309091 4.654545-13.963636 9.309091-18.618181 13.963636l13.963636 13.963636c4.654545-4.654545 13.963636-13.963636 23.272727-18.618181l107.054546 60.509091 27.927272-51.2z m-111.709091-242.036364l9.309091-18.618182-23.272727-9.309091-79.127273 139.636364 83.781819 46.545454-13.963637 27.927273 18.618182 13.963636 18.618182-27.927272 83.781818 46.545454 79.127273-134.981818-18.618182-9.309091-9.309091 13.963637-65.163636-37.236364 32.581818-60.509091-18.618182-13.963636-32.581818 55.854545-65.163637-32.581818z m-60.50909 102.4l18.618181-32.581818 65.163637 37.236363-18.618182 32.581819-65.163636-37.236364z m46.545454-83.781818l60.509091 37.236363-18.618182 32.581819-60.509091-37.236364 18.618182-32.581818z m102.4 167.563636l-65.163636-37.236364 18.618182-32.581818 65.163636 37.236364-18.618182 32.581818z m46.545455-79.127273l-18.618182 27.927273-65.163637-37.236364 18.618182-27.927272 65.163637 37.236363zM525.963636 197.81818199999998l-18.618181-9.309091-83.781819 139.636364c9.309091-32.581818 9.309091-65.163636 9.309091-97.745455l-18.618182 13.963636c4.654545 41.890909 0 83.781818-13.963636 125.672728l-37.236364-23.272728-9.30909 18.618182 37.236363 23.272727-32.581818 55.854546 18.618182 9.309091 32.581818-55.854546 32.581818 18.618182 9.309091-18.618182-32.581818-18.618181 9.309091-18.618182 69.818182-27.927273v-23.272727c-23.272727 13.963636-41.890909 23.272727-55.854546 32.581818l83.781818-144.290909z m-18.618181 288.581818c-9.309091 9.309091-18.618182 13.963636-27.927273 18.618182l18.618182 18.618182c9.309091-4.654545 18.618182-13.963636 32.581818-23.272728l60.509091 37.236364 9.309091-18.618182-79.127273-46.545454c0-37.236364 0-65.163636-9.309091-83.781819 18.618182 9.309091 32.581818 23.272727 51.2 32.581819v41.890909h23.272727c4.654545-74.472727-13.963636-134.981818-55.854545-186.181818l-18.618182 18.618181c27.927273 32.581818 46.545455 65.163636 51.2 107.054546-18.618182-13.963636-41.890909-27.927273-60.509091-41.890909l-13.963636 13.963636s0 4.654545 4.654545 4.654546c9.309091 13.963636 9.309091 41.890909 9.309091 83.781818l-55.854545-32.581818-9.309091 18.618181 69.818182 37.236364z m55.854545-265.309091l-23.272727 9.309091c55.854545 60.509091 79.127273 130.327273 74.472727 209.454545h23.272727c0-32.581818 0-65.163636-9.309091-93.090909 32.581818-4.654545 60.509091-13.963636 83.781819-23.272727l-4.654546-23.272727c-23.272727 9.309091-51.2 18.618182-83.781818 27.927273-13.963636-37.236364-32.581818-74.472727-60.509091-107.054546zM735.418182 663.272727l27.927273-51.2 102.4 60.509091 74.472727-134.981818-18.618182-13.963636-9.309091 18.618181-79.127273-46.545454 55.854546-97.745455-18.618182-13.963636-55.854545 97.745455-79.127273-46.545455 9.309091-18.618182-18.618182-13.963636L651.636364 537.6l93.090909 65.163636-27.927273 51.2 18.618182 9.309091z m65.163636-158.254545l-41.890909 74.472727-79.127273-46.545454 41.890909-74.472728 79.127273 46.545455z m102.4 60.509091l-41.890909 74.472727-79.127273-46.545455 41.890909-74.472727 79.127273 46.545455z"  horiz-adv-x="1024" />

    
    <glyph glyph-name="solid-time" unicode="&#59240;" d="M512 758.85714301C270.628571 758.85714301 73.142857 561.3714290099999 73.142857 320.00000001s197.485714-438.857143 438.857143-438.857143 438.857143 197.485714 438.857143 438.857143S753.371429 758.85714301 512 758.85714301z m256-512h-292.571429c-10.971429 0-18.285714 3.657143-25.6 10.971428-7.314286 7.314286-10.971429 14.628571-10.971428 25.6V576.00000001c0 18.285714 14.628571 36.571429 36.571428 36.571429 18.285714 0 36.571429-18.285714 36.571429-36.571429v-256h256c18.285714 0 36.571429-14.628571 36.571429-36.571429 0-18.285714-18.285714-36.571429-36.571429-36.571428z"  horiz-adv-x="1024" />

    
    <glyph glyph-name="user-team" unicode="&#58971;" d="M221.00958-10.028144999999995c-14.937201 0-27.097148 13.136182-27.097149 29.290093v69.617568c0 140.798746 78.5848 265.650289 200.212928 318.087568l8.246825 3.558036-6.971785 5.909593c-46.00273 38.984896-72.38868 97.263208-72.388681 159.887501 0 112.143103 84.548628 203.374944 188.481745 203.374943 103.938234 0 188.497095-91.231841 188.497095-203.374943 0-62.629409-26.391067-120.907721-72.403006-159.887501l-6.971785-5.909593 8.251941-3.558036c121.632221-52.443419 200.222137-177.299055 200.222137-318.087568v-69.617568c0-16.153912-12.150738-29.290093-27.093055-29.290093H221.00958z m290.526862 376.250246C369.892445 366.22210099999995 254.653841 241.94668000000001 254.653841 89.20083399999999v-39.46585h513.647523V89.20185700000002c0 152.744823-115.184369 277.020244-256.764922 277.020244z m-0.044002 354.292142c-73.579809 0-133.442198-64.558341-133.442198-143.90755 0-79.354326 59.862389-143.912667 133.442198-143.912668 73.594135 0 133.466758 64.558341 133.466758 143.912668 0 79.349209-59.872622 143.907551-133.466758 143.90755z m356.774683-620.508319c-0.305969 18.564821-2.208295 32.355919-5.850242 50.587142h49.505508v32.55137c0 98.268094-67.511603 183.658903-164.191527 207.667713l-6.962575 1.644453c-12.629645 4.176113-21.38096 15.213493-21.38096 27.349905 0 11.755742 8.029884 22.343891 20.456915 26.974352 40.11258 17.913998 65.841567 57.232492 65.841567 100.292193 0 47.691185-46.15111 88.493473-90.473571 103.538122-7.525394 21.942755-18.59859 42.446741-32.948413 60.984956a226.361471 226.361471 0 0 1-2.550079 4.054339c94.337575-0.522909 170.920788-75.954903 170.920788-168.598906 0-41.664935-15.821337-81.764212-44.574195-112.915699l-5.109368-5.54018 6.56144-3.341095c92.15384-46.929846 149.367913-139.699716 149.298327-242.100943v-53.864792c0-16.148795-13.558807-29.27986-30.225395-29.27986h-58.32129v-0.00307z m-774.22733 0c-16.671705 0-30.230512 13.130042-30.230512 29.27986v53.859675c0 102.411461 57.229422 195.182354 149.352563 242.10606l6.56144 3.341095-5.104252 5.53404c-28.733415 31.16172-44.564985 71.260997-44.564985 112.920816 0 92.632747 76.583213 168.048367 170.911578 168.577416-0.87902-1.364067-1.729387-2.711761-2.550079-4.054339-14.32424-18.521842-25.40767-39.026852-32.972972-60.990073-42.444694-14.483876-84.578304-54.155411-84.578304-103.533004 0-43.054585 25.734104-82.372056 65.555042-100.160188 12.713556-4.762467 20.74344-15.355733 20.74344-27.101241 0-12.142551-8.751315-23.185049-21.781073-27.466562l-6.51232-1.517563c-96.722902-23.998577-164.234505-109.379153-164.234505-207.65134v-32.55137h43.586704c-3.641947-18.331507-5.54939-32.138978-5.860475-50.587142h-58.32129v-0.00614z"  horiz-adv-x="1024" />

    
    <glyph glyph-name="weixin" unicode="&#59195;" d="M352.814545 510.603636m-33.512727 0a33.512727 33.512727 0 1 1 67.025455 0 33.512727 33.512727 0 1 1-67.025455 0ZM502.690909 511.534545m-33.512727 0a33.512727 33.512727 0 1 1 67.025454 0 33.512727 33.512727 0 1 1-67.025454 0ZM576.232727 361.658182m-23.272727 0a23.272727 23.272727 0 1 1 46.545455 0 23.272727 23.272727 0 1 1-46.545455 0ZM694.458182 359.79636400000004m-23.272727 0a23.272727 23.272727 0 1 1 46.545454 0 23.272727 23.272727 0 1 1-46.545454 0ZM512 896C229.003636 896 0 666.996364 0 384s229.003636-512 512-512 512 229.003636 512 512S794.996364 896 512 896z m-87.505455-630.225455c-26.996364 0-48.407273 5.585455-75.403636 11.17091l-75.403636-37.236364 21.410909 64.232727c-53.992727 37.236364-85.643636 85.643636-85.643637 145.221818 0 102.4 96.814545 182.458182 215.04 182.458182 105.192727 0 198.283636-64.232727 216.901819-150.807273-6.516364 0.930909-13.963636 0.930909-20.48 0.93091-102.4 0-182.458182-76.334545-182.458182-170.356364 0-15.825455 2.792727-30.72 6.516363-44.683636-7.447273 0-13.963636-0.930909-20.48-0.93091z m314.647273-75.403636l15.825455-53.992727-58.647273 32.581818c-21.410909-5.585455-42.821818-11.170909-64.232727-11.170909-102.4 0-182.458182 69.818182-182.458182 155.461818s80.058182 155.461818 182.458182 155.461818c96.814545 0 182.458182-69.818182 182.458182-155.461818 0-47.476364-31.650909-90.298182-75.403637-122.88z"  horiz-adv-x="1024" />

    
    <glyph glyph-name="weibo" unicode="&#59196;" d="M448.698182 413.789091c-96.814545-4.654545-175.010909-56.785455-175.010909-121.949091s78.196364-114.501818 175.010909-109.847273S623.709091 248.087273 623.709091 313.250909c-0.930909 64.232727-79.127273 105.192727-175.010909 100.538182z m65.163636-164.770909c-29.789091-39.098182-88.436364-57.716364-145.221818-26.065455-26.996364 14.894545-26.065455 43.752727-26.065455 43.752728s-11.170909 92.16 85.643637 103.330909c97.745455 12.101818 115.432727-81.92 85.643636-121.018182zM448.698182 311.389091c-6.516364-4.654545-7.447273-13.032727-3.723637-18.618182 2.792727-5.585455 11.170909-6.516364 16.756364-1.861818 5.585455 4.654545 8.378182 13.032727 4.654546 18.618182-2.792727 5.585455-10.24 6.516364-17.687273 1.861818zM403.083636 298.356364c-18.618182-1.861818-30.72-17.687273-30.72-33.512728 0-14.894545 14.894545-26.065455 32.581819-24.203636 17.687273 1.861818 32.581818 15.825455 32.581818 31.650909s-13.963636 27.927273-34.443637 26.065455zM512 896C229.003636 896 0 666.996364 0 384s229.003636-512 512-512 512 229.003636 512 512S794.996364 896 512 896z m197.352727-626.501818C669.323636 183.854545 538.065455 141.963636 441.250909 149.410909c-92.16 7.447273-211.316364 38.167273-223.418182 151.738182 0 0-6.516364 51.2 42.821818 117.294545 0 0 70.749091 99.607273 152.669091 128.465455 82.850909 27.927273 92.16-19.549091 92.16-48.407273-4.654545-24.203636-12.101818-38.167273 18.618182-28.858182 0 0 80.989091 38.167273 114.501818 4.654546 26.996364-26.996364 4.654545-65.163636 4.654546-65.163637s-11.170909-12.101818 12.101818-16.756363c21.410909-3.723636 94.021818-37.236364 53.992727-122.88z m-80.058182 236.450909c-8.378182 0-15.825455 7.447273-15.825454 15.825454 0 9.309091 7.447273 15.825455 15.825454 15.825455 0 0 99.607273 18.618182 87.505455-89.367273v-1.861818c-0.930909-7.447273-7.447273-13.963636-15.825455-13.963636-9.309091 0-15.825455 7.447273-15.825454 15.825454 0 1.861818 15.825455 73.541818-55.854546 57.716364zM797.789091 402.618182c-2.792727-18.618182-12.101818-11.170909-22.341818-11.170909-13.032727 0-23.272727 16.756364-23.272728 29.789091 0 11.170909 4.654545 22.341818 4.654546 22.341818 0.930909 4.654545 12.101818 34.443636-7.447273 78.196363-35.374545 60.509091-106.123636 60.509091-114.501818 57.716364-8.378182-3.723636-21.410909-5.585455-21.410909-5.585454-13.032727 0-23.272727 10.24-23.272727 23.272727 0 11.170909 7.447273 19.549091 16.756363 22.341818 0 0 0-0.930909 0.930909-0.930909s1.861818-0.930909 1.861819-0.930909c10.24 1.861818 45.614545 4.654545 79.127272-3.723637 62.370909-14.894545 146.152727-83.781818 108.916364-211.316363z"  horiz-adv-x="1024" />

    
    <glyph glyph-name="QQ" unicode="&#59198;" d="M512 896C229.003636 896 0 666.996364 0 384s229.003636-512 512-512 512 229.003636 512 512S794.996364 896 512 896z m210.385455-641.396364c-7.447273-9.309091-26.996364 1.861818-41.89091 32.581819-3.723636-13.963636-13.032727-36.305455-34.443636-64.232728 35.374545-8.378182 44.683636-42.821818 33.512727-61.44-8.378182-13.032727-26.996364-24.203636-59.578181-24.203636-58.647273 0-83.781818 15.825455-95.883637 26.996364-1.861818 2.792727-5.585455 3.723636-10.24 3.723636-4.654545 0-7.447273-0.930909-10.24-3.723636-11.170909-11.170909-37.236364-26.996364-95.883636-26.996364-32.581818 0-52.130909 11.170909-59.578182 24.203636-12.101818 18.618182-1.861818 53.061818 33.512727 61.44-20.48 27.927273-29.789091 50.269091-34.443636 64.232728-13.963636-30.72-34.443636-42.821818-41.890909-32.581819-5.585455 8.378182-8.378182 26.065455-7.447273 38.167273 3.723636 46.545455 34.443636 85.643636 53.061818 106.123636-2.792727 5.585455-8.378182 40.029091 14.894546 63.301819v1.861818c0 92.16 65.163636 158.254545 148.014545 158.254545 81.92 0 148.014545-66.094545 148.014546-158.254545v-1.861818c23.272727-23.272727 17.687273-57.716364 14.894545-63.301819 17.687273-20.48 49.338182-59.578182 53.061818-106.123636 0.930909-12.101818-0.930909-29.789091-7.447272-38.167273z"  horiz-adv-x="1024" />

    
    </font>
</defs>
</svg>
